<?xml version="1.0" encoding="utf-8"?>
<!-- Generator: Moho 12.4 build 22203 -->
<!DOCTYPE svg PUBLIC "-//W3C//DTD SVG 1.1//EN" "http://www.w3.org/Graphics/SVG/1.1/DTD/svg11.dtd">
<svg version="1.1" id="Frame_0" xmlns="http://www.w3.org/2000/svg" xmlns:xlink="http://www.w3.org/1999/xlink" width="1280px" height="720px">
<g id="Layer_10">
<g id="Layer_10">
<path fill="#f8743d" fill-rule="evenodd" stroke="none" d="M 494.070 450.066 C 494.070 450.066 494.070 450.066 494.070 450.066 C 504.302 444.443 517.923 436.907 528.176 431.323 C 547.257 420.932 572.501 406.691 591.927 396.960 C 594.477 395.683 598.212 394.568 600.518 392.891 C 603.547 390.689 606.444 386.470 608.984 383.718 C 608.984 383.718 608.984 383.718 608.984 383.718 C 611.530 383.130 617.471 381.760 617.471 381.759 C 613.848 386.264 605.395 396.774 605.393 396.775 C 573.102 414.480 497.766 455.785 497.756 455.791 C 490.415 455.971 473.290 456.392 473.287 456.392 C 472.625 457.836 471.212 459.623 471.081 461.206 C 470.904 463.331 471.906 466.249 473.087 468.025 C 475.491 471.643 481.100 474.247 484.719 476.649 C 488.966 479.468 499.359 485.273 499.360 485.274 C 494.017 483.757 486.543 482.649 481.550 480.218 C 477.303 478.150 471.453 474.908 468.774 471.019 C 466.916 468.322 465.815 463.816 465.707 460.543 C 465.612 457.642 467.751 451.089 467.752 451.088 C 475.647 450.782 494.068 450.066 494.070 450.066 C 494.070 450.066 494.070 450.066 494.070 450.066 Z"/>
<path fill="none" stroke="#f65e1d" stroke-width="1" stroke-linecap="round" stroke-linejoin="round" d="M 467.752 451.088 C 467.752 451.088 467.752 451.088 467.752 451.088 C 467.751 451.089 465.612 457.642 465.707 460.543 C 465.815 463.816 466.916 468.322 468.774 471.019 C 471.453 474.908 477.303 478.150 481.550 480.218 C 486.543 482.649 494.017 483.757 499.360 485.274 C 499.360 485.274 499.360 485.274 499.360 485.274 C 499.359 485.273 488.966 479.468 484.719 476.649 C 481.100 474.247 475.491 471.643 473.087 468.025 C 471.906 466.249 470.904 463.331 471.081 461.206 C 471.212 459.623 472.625 457.836 473.287 456.392 C 473.287 456.392 473.287 456.392 473.287 456.392 C 473.290 456.392 490.415 455.971 497.756 455.791 C 497.756 455.791 497.756 455.791 497.756 455.791 C 497.766 455.785 573.102 414.480 605.393 396.775 C 605.393 396.775 605.393 396.775 605.393 396.775 C 605.395 396.774 613.848 386.264 617.471 381.759 C 617.471 381.759 617.471 381.759 617.471 381.759 C 617.471 381.760 611.530 383.130 608.984 383.718 C 606.444 386.470 603.547 390.689 600.518 392.891 C 598.212 394.568 594.477 395.683 591.927 396.960 C 572.501 406.691 547.257 420.932 528.176 431.323 C 517.923 436.907 504.302 444.443 494.070 450.066 C 494.070 450.066 494.070 450.066 494.070 450.066 C 494.068 450.066 475.647 450.782 467.752 451.088 M 608.984 383.718 C 608.984 383.718 608.984 383.718 608.984 383.718 M 494.070 450.066 C 494.070 450.066 494.070 450.066 494.070 450.066 "/>
<path fill="#f8743d" fill-rule="evenodd" stroke="none" d="M 487.376 437.772 C 487.376 437.772 487.376 437.772 487.376 437.772 C 493.500 434.747 501.737 430.851 507.792 427.687 C 530.401 415.873 559.737 398.622 581.999 386.165 C 581.999 386.165 581.999 386.165 581.999 386.165 C 585.426 386.488 589.995 386.919 593.422 387.243 C 593.422 387.243 593.422 387.243 593.422 387.243 C 563.162 404.668 492.565 445.321 492.555 445.326 C 480.156 445.241 451.228 445.040 451.223 445.040 C 450.966 449.159 449.533 454.728 450.365 458.770 C 450.814 460.951 452.309 463.618 453.512 465.491 C 457.417 471.576 471.777 490.285 469.672 483.368 C 469.627 483.220 469.489 483.055 469.386 482.940 C 464.877 477.878 455.737 474.556 451.217 469.503 C 448.964 466.985 446.338 463.130 445.313 459.910 C 443.836 455.264 443.248 448.367 444.576 443.676 C 445.189 441.508 448.511 437.281 448.511 437.280 C 460.170 437.428 487.372 437.772 487.376 437.772 C 487.376 437.772 487.376 437.772 487.376 437.772 Z"/>
<path fill="none" stroke="#f65e1d" stroke-width="1" stroke-linecap="round" stroke-linejoin="round" d="M 451.223 445.040 C 451.223 445.040 451.223 445.040 451.223 445.040 C 451.228 445.040 480.156 445.241 492.555 445.326 C 492.555 445.326 492.555 445.326 492.555 445.326 C 492.565 445.321 563.162 404.668 593.422 387.243 C 589.995 386.919 585.426 386.488 581.999 386.165 C 559.737 398.622 530.401 415.873 507.792 427.687 C 501.737 430.851 493.500 434.747 487.376 437.772 C 487.376 437.772 487.376 437.772 487.376 437.772 C 487.372 437.772 460.170 437.428 448.511 437.280 C 448.511 437.280 448.511 437.280 448.511 437.280 C 448.511 437.281 445.189 441.508 444.576 443.676 C 443.248 448.367 443.836 455.264 445.313 459.910 C 446.338 463.130 448.964 466.985 451.217 469.503 C 455.737 474.556 464.877 477.878 469.386 482.940 C 469.489 483.055 469.627 483.220 469.672 483.368 C 471.777 490.285 457.417 471.576 453.512 465.491 C 452.309 463.618 450.814 460.951 450.365 458.770 C 449.533 454.728 450.966 449.159 451.223 445.040 M 581.999 386.165 C 581.999 386.165 581.999 386.165 581.999 386.165 M 593.422 387.243 C 593.422 387.243 593.422 387.243 593.422 387.243 M 487.376 437.772 C 487.376 437.772 487.376 437.772 487.376 437.772 "/>
<path fill="#f8743d" fill-rule="evenodd" stroke="none" d="M 483.122 425.462 C 483.122 425.462 483.122 425.462 483.122 425.462 C 507.206 412.751 539.318 395.804 563.401 383.094 C 563.401 383.094 563.401 383.094 563.401 383.094 C 566.562 383.580 573.936 384.714 573.937 384.715 C 546.919 398.774 483.886 431.574 483.877 431.579 C 469.192 431.579 434.931 431.579 434.926 431.579 C 435.098 439.724 434.453 450.651 435.500 458.731 C 435.711 460.360 436.012 462.570 436.647 464.085 C 439.012 469.725 448.693 480.528 448.694 480.529 C 443.302 475.768 434.270 470.915 430.720 464.659 C 427.860 459.620 427.381 451.502 426.895 445.729 C 426.376 439.550 427.579 425.074 427.579 425.072 C 444.242 425.189 483.117 425.462 483.122 425.462 C 483.122 425.462 483.122 425.462 483.122 425.462 Z"/>
<path fill="none" stroke="#f65e1d" stroke-width="1" stroke-linecap="round" stroke-linejoin="round" d="M 427.579 425.072 C 427.579 425.072 427.579 425.072 427.579 425.072 C 427.579 425.074 426.376 439.550 426.895 445.729 C 427.381 451.502 427.860 459.620 430.720 464.659 C 434.270 470.915 443.302 475.768 448.694 480.529 C 448.694 480.529 448.694 480.529 448.694 480.529 C 448.693 480.528 439.012 469.725 436.647 464.085 C 436.012 462.570 435.711 460.360 435.500 458.731 C 434.453 450.651 435.098 439.724 434.926 431.579 C 434.926 431.579 434.926 431.579 434.926 431.579 C 434.931 431.579 469.192 431.579 483.877 431.579 C 483.877 431.579 483.877 431.579 483.877 431.579 C 483.886 431.574 546.919 398.774 573.937 384.715 C 573.937 384.715 573.937 384.715 573.937 384.715 C 573.936 384.714 566.562 383.580 563.401 383.094 C 539.318 395.804 507.206 412.751 483.122 425.462 C 483.122 425.462 483.122 425.462 483.122 425.462 C 483.117 425.462 444.242 425.189 427.579 425.072 M 563.401 383.094 C 563.401 383.094 563.401 383.094 563.401 383.094 M 483.122 425.462 C 483.122 425.462 483.122 425.462 483.122 425.462 "/>
<path fill="#f8743d" fill-rule="evenodd" stroke="none" d="M 480.069 407.546 C 480.069 407.546 480.069 407.546 480.069 407.546 C 499.292 397.842 524.923 384.904 544.147 375.200 C 544.147 375.200 544.147 375.200 544.147 375.200 C 547.413 376.289 555.033 378.828 555.034 378.829 C 533.126 389.855 482.014 415.578 482.006 415.582 C 461.451 413.210 413.495 407.677 413.488 407.676 C 413.404 420.076 413.210 449.005 413.210 449.009 C 417.246 454.210 426.663 466.345 426.664 466.347 C 421.082 461.684 408.059 450.805 408.057 450.804 C 407.675 436.070 406.785 401.698 406.784 401.693 C 428.770 403.449 480.062 407.545 480.069 407.546 C 480.069 407.546 480.069 407.546 480.069 407.546 Z"/>
<path fill="none" stroke="#f65e1d" stroke-width="1" stroke-linecap="round" stroke-linejoin="round" d="M 426.664 466.347 C 426.664 466.347 426.664 466.347 426.664 466.347 C 426.663 466.345 417.246 454.210 413.210 449.009 C 413.210 449.009 413.210 449.009 413.210 449.009 C 413.210 449.005 413.404 420.076 413.488 407.676 C 413.488 407.676 413.488 407.676 413.488 407.676 C 413.495 407.677 461.451 413.210 482.006 415.582 C 482.006 415.582 482.006 415.582 482.006 415.582 C 482.014 415.578 533.126 389.855 555.034 378.829 C 555.034 378.829 555.034 378.829 555.034 378.829 C 555.033 378.828 547.413 376.289 544.147 375.200 C 524.923 384.904 499.292 397.842 480.069 407.546 C 480.069 407.546 480.069 407.546 480.069 407.546 C 480.062 407.545 428.770 403.449 406.784 401.693 C 406.784 401.693 406.784 401.693 406.784 401.693 C 406.785 401.698 407.675 436.070 408.057 450.804 C 408.057 450.804 408.057 450.804 408.057 450.804 C 408.059 450.805 421.082 461.684 426.664 466.347 M 544.147 375.200 C 544.147 375.200 544.147 375.200 544.147 375.200 M 480.069 407.546 C 480.069 407.546 480.069 407.546 480.069 407.546 "/>
<path fill="#f8743d" fill-rule="evenodd" stroke="none" d="M 455.611 394.451 C 455.611 394.451 455.611 394.451 455.611 394.451 C 475.550 385.692 502.135 374.013 522.075 365.254 C 522.075 365.254 522.075 365.254 522.075 365.254 C 524.353 367.177 529.670 371.662 529.671 371.663 C 508.378 380.778 458.704 402.043 458.697 402.046 C 438.758 399.697 392.240 394.214 392.233 394.213 C 391.663 397.133 390.565 400.980 390.334 403.945 C 389.978 408.494 391.046 419.136 391.046 419.137 C 393.823 426.045 400.302 442.160 400.303 442.162 C 395.319 434.543 383.689 416.766 383.688 416.764 C 383.545 413.986 383.092 410.284 383.213 407.506 C 383.476 401.459 386.298 387.569 386.299 387.567 C 407.092 389.632 455.604 394.450 455.611 394.451 C 455.611 394.451 455.611 394.451 455.611 394.451 Z"/>
<path fill="none" stroke="#f65e1d" stroke-width="1" stroke-linecap="round" stroke-linejoin="round" d="M 383.688 416.764 C 383.688 416.764 383.688 416.764 383.688 416.764 C 383.689 416.766 395.319 434.543 400.303 442.162 C 400.303 442.162 400.303 442.162 400.303 442.162 C 400.302 442.160 393.823 426.045 391.046 419.137 C 391.046 419.137 391.046 419.137 391.046 419.137 C 391.046 419.136 389.978 408.494 390.334 403.945 C 390.565 400.980 391.663 397.133 392.233 394.213 C 392.233 394.213 392.233 394.213 392.233 394.213 C 392.240 394.214 438.758 399.697 458.697 402.046 C 458.697 402.046 458.697 402.046 458.697 402.046 C 458.704 402.043 508.378 380.778 529.671 371.663 C 529.671 371.663 529.671 371.663 529.671 371.663 C 529.670 371.662 524.353 367.177 522.075 365.254 C 502.135 374.013 475.550 385.692 455.611 394.451 C 455.611 394.451 455.611 394.451 455.611 394.451 C 455.604 394.450 407.092 389.632 386.299 387.567 C 386.299 387.567 386.299 387.567 386.299 387.567 C 386.298 387.569 383.476 401.459 383.213 407.506 C 383.092 410.284 383.545 413.986 383.688 416.764 M 522.075 365.254 C 522.075 365.254 522.075 365.254 522.075 365.254 M 455.611 394.451 C 455.611 394.451 455.611 394.451 455.611 394.451 "/>
<path fill="#f8743d" fill-rule="evenodd" stroke="none" d="M 451.061 379.842 C 451.061 379.842 451.061 379.842 451.061 379.842 C 467.218 372.855 488.761 363.539 504.918 356.552 C 504.918 356.552 504.918 356.552 504.918 356.552 C 507.102 358.008 512.196 361.404 512.196 361.404 C 494.802 369.119 454.221 387.117 454.215 387.120 C 438.786 384.354 418.246 380.480 402.784 377.901 C 401.403 377.671 399.571 377.272 398.175 377.173 C 393.962 376.874 388.156 376.464 384.104 377.658 C 381.039 378.561 376.571 380.280 374.885 382.996 C 373.919 384.552 374.146 387.228 374.157 389.060 C 374.177 392.076 374.986 396.057 375.613 399.007 C 376.495 403.153 379.494 412.591 379.494 412.593 C 376.292 408.735 370.757 404.359 368.820 399.735 C 367.771 397.228 367.596 393.476 367.607 390.759 C 367.619 387.743 367.846 383.571 369.063 380.812 C 369.962 378.774 371.939 376.389 373.672 374.990 C 376.053 373.068 379.897 371.255 382.891 370.623 C 387.453 369.660 393.776 370.898 398.417 371.351 C 414.339 372.903 451.056 379.841 451.061 379.842 C 451.061 379.842 451.061 379.842 451.061 379.842 Z"/>
<path fill="none" stroke="#f65e1d" stroke-width="1" stroke-linecap="round" stroke-linejoin="round" d="M 454.215 387.120 C 454.215 387.120 454.215 387.120 454.215 387.120 C 454.221 387.117 494.802 369.119 512.196 361.404 C 512.196 361.404 512.196 361.404 512.196 361.404 C 512.196 361.404 507.102 358.008 504.918 356.552 C 488.761 363.539 467.218 372.855 451.061 379.842 C 451.061 379.842 451.061 379.842 451.061 379.842 C 451.056 379.841 414.339 372.903 398.417 371.351 C 393.776 370.898 387.453 369.660 382.891 370.623 C 379.897 371.255 376.053 373.068 373.672 374.990 C 371.939 376.389 369.962 378.774 369.063 380.812 C 367.846 383.571 367.619 387.743 367.607 390.759 C 367.596 393.476 367.771 397.228 368.820 399.735 C 370.757 404.359 376.292 408.735 379.494 412.593 C 379.494 412.593 379.494 412.593 379.494 412.593 C 379.494 412.591 376.495 403.153 375.613 399.007 C 374.986 396.057 374.177 392.076 374.157 389.060 C 374.146 387.228 373.919 384.552 374.885 382.996 C 376.571 380.280 381.039 378.561 384.104 377.658 C 388.156 376.464 393.962 376.874 398.175 377.173 C 399.571 377.272 401.403 377.671 402.784 377.901 C 418.246 380.480 438.786 384.354 454.215 387.120 M 504.918 356.552 C 504.918 356.552 504.918 356.552 504.918 356.552 M 451.061 379.842 C 451.061 379.842 451.061 379.842 451.061 379.842 "/>
</g>
<g id="Layer_8">
<path fill="#f8743d" fill-rule="evenodd" stroke="none" d="M 199.142 403.503 C 187.587 414.864 172.512 430.346 161.099 441.850 C 161.103 441.846 189.069 417.634 200.967 407.156 C 211.062 398.266 224.356 386.227 234.445 377.330 C 245.170 367.872 259.333 355.094 270.356 345.984 C 274.791 342.318 280.725 337.439 285.415 334.105 C 292.555 329.028 302.694 323.180 310.099 318.498 C 310.099 318.498 307.081 312.902 305.788 310.504 C 298.578 315.024 288.556 320.456 281.755 325.572 C 276.725 329.356 270.688 335.230 266.048 339.483 C 255.624 349.039 242.159 362.243 231.943 372.019 C 222.088 381.449 208.868 393.940 199.142 403.503 M 305.788 310.504 C 305.788 310.504 305.788 310.504 305.788 310.504 Z"/>
<path fill="none" stroke="#f65e1d" stroke-width="1" stroke-linecap="round" stroke-linejoin="round" d="M 161.099 441.850 C 161.099 441.850 161.099 441.850 161.099 441.850 C 172.512 430.346 187.587 414.864 199.142 403.503 C 208.868 393.940 222.088 381.449 231.943 372.019 C 242.159 362.243 255.624 349.039 266.048 339.483 C 270.688 335.230 276.725 329.356 281.755 325.572 C 288.556 320.456 298.578 315.024 305.788 310.504 C 305.788 310.504 305.788 310.504 305.788 310.504 C 307.081 312.902 310.099 318.498 310.099 318.498 C 310.099 318.498 310.099 318.498 310.099 318.498 C 302.694 323.180 292.555 329.028 285.415 334.105 C 280.725 337.439 274.791 342.318 270.356 345.984 C 259.333 355.094 245.170 367.872 234.445 377.330 C 224.356 386.227 211.062 398.266 200.967 407.156 C 189.069 417.634 161.103 441.846 161.099 441.850 "/>
<path fill="#f98b5d" fill-rule="evenodd" stroke="none" d="M 310.754 329.522 C 310.754 329.522 310.754 329.522 310.754 329.522 C 308.938 327.630 305.859 325.568 304.700 323.216 C 303.617 321.018 303.034 317.562 303.439 315.145 C 303.719 313.476 304.662 311.183 305.962 310.100 C 310.387 306.414 319.369 308.502 324.878 306.822 C 327.634 305.981 330.886 303.632 333.706 303.038 C 341.187 301.463 351.542 303.452 359.180 303.795 C 365.541 304.080 374.137 303.741 380.367 305.056 C 385.731 306.189 392.336 309.572 397.518 311.362 C 402.629 313.127 409.345 315.960 414.669 316.910 C 425.099 318.772 439.386 317.440 449.979 317.667 C 449.979 317.667 449.979 317.667 449.979 317.667 C 454.746 319.710 465.868 324.476 465.870 324.477 C 463.827 328.412 462.445 334.730 459.059 337.593 C 450.159 345.117 432.862 345.742 421.227 346.421 C 410.282 347.059 384.910 342.385 384.906 342.385 C 383.469 338.601 382.440 333.086 380.115 329.774 C 379.222 328.503 376.331 326.243 376.331 326.243 C 367.554 325.183 355.902 323.169 347.073 322.712 C 340.801 322.387 332.279 321.643 326.139 322.964 C 321.234 324.019 310.755 329.521 310.754 329.522 C 310.754 329.522 310.754 329.522 310.754 329.522 Z"/>
<path fill="none" stroke="#f8733c" stroke-width="1" stroke-linecap="round" stroke-linejoin="round" d="M 384.906 342.385 C 384.906 342.385 384.906 342.385 384.906 342.385 C 384.910 342.385 410.282 347.059 421.227 346.421 C 432.862 345.742 450.159 345.117 459.059 337.593 C 462.445 334.730 463.827 328.412 465.870 324.477 C 465.870 324.477 465.870 324.477 465.870 324.477 C 465.868 324.476 454.746 319.710 449.979 317.667 C 439.386 317.440 425.099 318.772 414.669 316.910 C 409.345 315.960 402.629 313.127 397.518 311.362 C 392.336 309.572 385.731 306.189 380.367 305.056 C 374.137 303.741 365.541 304.080 359.180 303.795 C 351.542 303.452 341.187 301.463 333.706 303.038 C 330.886 303.632 327.634 305.981 324.878 306.822 C 319.369 308.502 310.387 306.414 305.962 310.100 C 304.662 311.183 303.719 313.476 303.439 315.145 C 303.034 317.562 303.617 321.018 304.700 323.216 C 305.859 325.568 308.938 327.630 310.754 329.522 C 310.754 329.522 310.754 329.522 310.754 329.522 C 310.755 329.521 321.234 324.019 326.139 322.964 C 332.279 321.643 340.801 322.387 347.073 322.712 C 355.902 323.169 367.554 325.183 376.331 326.243 C 376.331 326.243 376.331 326.243 376.331 326.243 C 376.331 326.243 379.222 328.503 380.115 329.774 C 382.440 333.086 383.469 338.601 384.906 342.385 M 449.979 317.667 C 449.979 317.667 449.979 317.667 449.979 317.667 M 310.754 329.522 C 310.754 329.522 310.754 329.522 310.754 329.522 "/>
<path fill="#f8743d" fill-rule="evenodd" stroke="none" d="M 164.324 482.297 C 157.839 490.239 149.378 500.979 142.973 508.985 C 142.975 508.983 159.505 492.111 166.325 484.632 C 183.924 465.333 205.935 438.316 223.039 418.577 C 237.577 401.799 256.126 378.641 271.746 362.865 C 278.282 356.263 287.553 348.019 294.659 342.035 C 299.412 338.032 306.069 333.088 310.959 329.253 C 310.958 329.253 306.346 324.116 304.369 321.914 C 300.154 325.329 294.247 329.555 290.318 333.296 C 282.896 340.364 274.496 351.229 267.812 358.999 C 253.510 375.627 234.807 398.111 220.704 414.907 C 203.754 435.094 180.995 461.879 164.324 482.297 M 304.369 321.914 C 304.369 321.914 304.369 321.914 304.369 321.914 Z"/>
<path fill="none" stroke="#f65e1d" stroke-width="1" stroke-linecap="round" stroke-linejoin="round" d="M 142.973 508.985 C 142.973 508.985 142.973 508.985 142.973 508.985 C 149.378 500.979 157.839 490.239 164.324 482.297 C 180.995 461.879 203.754 435.094 220.704 414.907 C 234.807 398.111 253.510 375.627 267.812 358.999 C 274.496 351.229 282.896 340.364 290.318 333.296 C 294.247 329.555 300.154 325.329 304.369 321.914 C 304.369 321.914 304.369 321.914 304.369 321.914 M 310.959 329.253 C 310.959 329.253 310.959 329.253 310.959 329.253 C 306.069 333.088 299.412 338.032 294.659 342.035 C 287.553 348.019 278.282 356.263 271.746 362.865 C 256.126 378.641 237.577 401.799 223.039 418.577 C 205.935 438.316 183.924 465.333 166.325 484.632 C 159.505 492.111 142.975 508.983 142.973 508.985 "/>
</g>
<g id="Layer_7">
<path fill="#fcad69" fill-rule="evenodd" stroke="#fcad69" stroke-width="1" stroke-linecap="round" stroke-linejoin="round" d="M 455.613 314.182 C 455.613 314.182 455.613 314.182 455.613 314.182 C 460.447 322.436 465.120 334.776 471.727 341.693 C 480.764 351.156 497.121 358.728 508.670 364.881 C 523.112 372.576 542.746 382.764 558.582 386.889 C 570.854 390.087 588.182 393.619 600.634 391.213 C 613.736 388.681 629.213 378.326 639.935 370.383 C 649.850 363.038 661.264 350.898 669.018 341.300 C 677.650 330.615 686.350 314.339 693.778 302.785 C 693.778 302.785 693.778 302.785 693.778 302.785 C 659.232 296.890 613.619 285.037 578.625 283.134 C 555.638 281.885 523.990 280.288 501.988 287.064 C 486.586 291.808 455.618 314.180 455.613 314.182 C 455.613 314.182 455.613 314.182 455.613 314.182 Z"/>
</g>
<g id="Layer_9">
<path fill="#f8743d" fill-rule="evenodd" stroke="none" d="M 252.515 369.013 C 252.515 369.013 252.515 369.013 252.515 369.013 C 260.573 365.034 271.083 359.217 279.375 355.751 C 284.548 353.589 291.556 350.876 297.001 349.540 C 304.603 347.675 315.056 346.704 322.853 346.015 C 330.083 345.375 339.775 345.310 347.027 345.008 C 347.027 345.008 347.027 345.008 347.027 345.008 C 347.631 344.957 349.041 344.840 349.041 344.840 C 349.041 346.250 349.041 349.540 349.041 349.540 C 341.336 349.993 331.044 350.355 323.357 351.051 C 315.525 351.760 305.018 352.552 297.337 354.240 C 291.923 355.431 284.980 358.061 279.711 359.780 C 271.520 362.453 252.518 369.012 252.515 369.013 C 252.515 369.013 252.515 369.013 252.515 369.013 Z"/>
<path fill="none" stroke="#f65e1d" stroke-width="1" stroke-linecap="round" stroke-linejoin="round" d="M 349.041 349.540 C 349.041 349.540 349.041 349.540 349.041 349.540 C 349.041 349.540 349.041 346.250 349.041 344.840 C 349.041 344.840 349.041 344.840 349.041 344.840 C 349.041 344.840 347.631 344.957 347.027 345.008 C 339.775 345.310 330.083 345.375 322.853 346.015 C 315.056 346.704 304.603 347.675 297.001 349.540 C 291.556 350.876 284.548 353.589 279.375 355.751 C 271.083 359.217 260.573 365.034 252.515 369.013 C 252.515 369.013 252.515 369.013 252.515 369.013 C 252.518 369.012 271.520 362.453 279.711 359.780 C 284.980 358.061 291.923 355.431 297.337 354.240 C 305.018 352.552 315.525 351.760 323.357 351.051 C 331.044 350.355 341.336 349.993 349.041 349.540 M 347.027 345.008 C 347.027 345.008 347.027 345.008 347.027 345.008 M 252.515 369.013 C 252.515 369.013 252.515 369.013 252.515 369.013 "/>
<path fill="#f8743d" fill-rule="evenodd" stroke="none" d="M 255.537 377.239 C 255.537 377.239 255.537 377.239 255.537 377.239 C 260.422 374.267 266.689 369.856 271.821 367.334 C 279.930 363.348 291.239 358.880 300.023 356.759 C 306.927 355.091 316.442 354.428 323.525 353.904 C 331.312 353.329 341.739 353.435 349.545 353.233 C 349.545 353.233 349.545 353.233 349.545 353.233 C 349.746 354.391 350.217 357.094 350.217 357.094 C 342.360 357.447 331.867 357.633 324.029 358.269 C 316.700 358.864 306.862 359.516 299.687 361.123 C 291.279 363.006 280.562 367.339 272.492 370.356 C 267.350 372.279 255.539 377.238 255.537 377.239 C 255.537 377.239 255.537 377.239 255.537 377.239 Z"/>
<path fill="none" stroke="#f65e1d" stroke-width="1" stroke-linecap="round" stroke-linejoin="round" d="M 350.217 357.094 C 350.217 357.094 350.217 357.094 350.217 357.094 C 350.217 357.094 349.746 354.391 349.545 353.233 C 341.739 353.435 331.312 353.329 323.525 353.904 C 316.442 354.428 306.927 355.091 300.023 356.759 C 291.239 358.880 279.930 363.348 271.821 367.334 C 266.689 369.856 260.422 374.267 255.537 377.239 C 255.537 377.239 255.537 377.239 255.537 377.239 C 255.539 377.238 267.350 372.279 272.492 370.356 C 280.562 367.339 291.279 363.006 299.687 361.123 C 306.862 359.516 316.700 358.864 324.029 358.269 C 331.867 357.633 342.360 357.447 350.217 357.094 M 349.545 353.233 C 349.545 353.233 349.545 353.233 349.545 353.233 M 255.537 377.239 C 255.537 377.239 255.537 377.239 255.537 377.239 "/>
<path fill="#f98b5d" fill-rule="evenodd" stroke="#f8743c" stroke-width="1" stroke-linecap="round" stroke-linejoin="round" d="M 466.960 325.495 C 466.960 325.495 466.960 325.495 466.960 325.495 C 461.536 330.919 455.408 339.548 448.880 343.576 C 442.927 347.248 433.629 349.585 426.781 351.009 C 414.182 353.628 396.859 353.839 383.992 354.022 C 373.377 354.173 357.619 358.269 348.634 352.616 C 347.063 351.627 345.479 349.392 345.019 347.594 C 344.704 346.362 344.727 344.440 345.421 343.375 C 346.348 341.952 348.825 341.278 350.443 340.763 C 356.843 338.726 366.046 339.287 372.742 338.754 C 384.303 337.835 399.763 337.195 411.313 336.143 C 417.775 335.554 426.679 335.863 432.808 333.732 C 439.742 331.323 447.292 324.592 453.500 320.674 C 453.500 320.674 453.500 320.674 453.500 320.674 C 457.538 322.121 466.958 325.495 466.960 325.495 C 466.960 325.495 466.960 325.495 466.960 325.495 Z"/>
<path fill="#f98b5d" fill-rule="evenodd" stroke="#f8743c" stroke-width="1" stroke-linecap="round" stroke-linejoin="round" d="M 424.572 346.388 C 420.260 347.580 414.536 349.379 410.107 350.004 C 399.961 351.437 386.200 350.369 375.956 350.607 C 369.566 350.755 361.049 351.015 354.661 351.210 C 352.793 351.267 350.257 350.998 348.434 351.411 C 347.222 351.685 344.967 351.825 344.617 353.018 C 344.216 354.382 346.274 356.005 347.429 356.835 C 348.962 357.936 351.596 358.323 353.456 358.642 C 359.872 359.744 368.643 358.963 375.152 359.044 C 385.277 359.171 398.792 359.790 408.902 359.245 C 414.531 358.942 422.040 358.253 427.585 357.236 C 437.349 355.447 451.756 354.775 459.527 348.598 C 460.783 347.600 462.375 345.775 462.540 344.178 C 462.822 341.444 459.727 338.413 458.522 335.942 C 458.522 335.942 458.522 335.942 458.522 335.942 C 458.522 336.063 434.843 343.551 424.572 346.388 Z"/>
<path fill="#f98b5d" fill-rule="evenodd" stroke="#f8743c" stroke-width="1" stroke-linecap="round" stroke-linejoin="round" d="M 464.549 343.776 C 456.867 347.549 445.835 350.786 437.629 353.218 C 430.846 355.229 421.629 357.287 414.728 358.843 C 413.586 359.101 411.828 358.919 410.911 359.647 C 410.024 360.351 409.176 361.937 409.304 363.062 C 409.464 364.465 411.031 366.095 412.317 366.678 C 413.305 367.126 414.850 366.746 415.933 366.678 C 422.925 366.240 432.226 364.910 439.036 363.263 C 447.150 361.301 457.952 358.086 465.352 354.223 C 473.986 349.716 483.634 340.723 491.469 334.937 C 491.469 334.937 491.469 334.937 491.469 334.937 C 489.480 333.672 486.828 331.984 484.839 330.719 C 484.839 330.719 484.839 330.719 484.839 330.719 C 484.839 330.659 471.046 340.585 464.549 343.776 Z"/>
<path fill="#f98b5d" fill-rule="evenodd" stroke="#f8743c" stroke-width="1" stroke-linecap="round" stroke-linejoin="round" d="M 441.848 325.094 C 441.502 326.287 442.389 327.959 442.853 329.112 C 443.478 330.665 445.086 332.362 445.665 333.933 C 445.984 334.798 445.753 336.182 446.268 336.947 C 447.352 338.559 450.668 338.652 451.893 340.161 C 452.974 341.492 452.348 344.530 453.701 345.585 C 455.650 347.104 459.487 346.109 461.937 345.786 C 467.020 345.114 473.598 342.803 478.210 340.562 C 479.623 339.875 481.829 339.102 482.629 337.750 C 484.103 335.260 484.029 330.639 482.629 328.107 C 479.526 322.493 469.822 319.786 463.545 318.465 C 459.591 317.632 454.123 318.746 450.085 318.866 C 450.085 318.866 450.085 318.866 450.085 318.866 C 450.024 318.866 442.712 322.119 441.848 325.094 Z"/>
</g>
<g id="Layer_6">
<path fill="#f98b5e" fill-rule="evenodd" stroke="none" d="M 614.754 425.277 C 614.754 425.277 614.754 425.277 614.754 425.277 C 611.943 423.812 607.861 422.372 605.382 420.395 C 602.684 418.244 599.256 414.807 597.961 411.609 C 596.684 408.452 596.591 403.637 597.181 400.283 C 597.848 396.487 600.557 391.923 602.453 388.567 C 608.828 377.285 620.531 364.318 627.837 353.615 C 629.413 351.307 632.140 348.490 632.914 345.804 C 633.515 343.722 632.914 340.747 632.914 338.580 C 632.914 338.580 632.914 338.580 632.914 338.580 C 637.132 336.236 646.972 330.770 646.973 330.769 C 646.973 331.882 647.150 333.380 646.973 334.479 C 646.438 337.810 644.680 342.060 643.068 345.023 C 640.851 349.099 636.462 353.600 633.695 357.325 C 626.464 367.061 616.334 379.745 610.068 390.129 C 607.754 393.965 603.959 398.986 603.234 403.408 C 602.670 406.849 603.299 411.778 604.796 414.928 C 606.645 418.820 614.753 425.276 614.754 425.277 C 614.754 425.277 614.754 425.277 614.754 425.277 Z"/>
<path fill="none" stroke="#f8723c" stroke-width="1" stroke-linecap="round" stroke-linejoin="round" d="M 646.973 330.769 C 646.973 330.769 646.973 330.769 646.973 330.769 C 646.972 330.770 637.132 336.236 632.914 338.580 C 632.914 340.747 633.515 343.722 632.914 345.804 C 632.140 348.490 629.413 351.307 627.837 353.615 C 620.531 364.318 608.828 377.285 602.453 388.567 C 600.557 391.923 597.848 396.487 597.181 400.283 C 596.591 403.637 596.684 408.452 597.961 411.609 C 599.256 414.807 602.684 418.244 605.382 420.395 C 607.861 422.372 611.943 423.812 614.754 425.277 C 614.754 425.277 614.754 425.277 614.754 425.277 C 614.753 425.276 606.645 418.820 604.796 414.928 C 603.299 411.778 602.670 406.849 603.234 403.408 C 603.959 398.986 607.754 393.965 610.068 390.129 C 616.334 379.745 626.464 367.061 633.695 357.325 C 636.462 353.600 640.851 349.099 643.068 345.023 C 644.680 342.060 646.438 337.810 646.973 334.479 C 647.150 333.380 646.973 331.882 646.973 330.769 M 632.914 338.580 C 632.914 338.580 632.914 338.580 632.914 338.580 M 614.754 425.277 C 614.754 425.277 614.754 425.277 614.754 425.277 "/>
<path fill="#f98b5e" fill-rule="evenodd" stroke="none" d="M 589.953 428.256 C 589.953 428.256 589.953 428.256 589.953 428.256 C 587.008 424.133 581.552 419.378 580.136 414.513 C 578.900 410.267 579.629 404.054 580.790 399.787 C 581.973 395.444 585.542 390.413 587.826 386.534 C 591.369 380.515 596.918 373.005 600.588 367.063 C 604.078 361.411 608.376 353.662 611.714 347.919 C 611.714 347.919 611.714 347.919 611.714 347.919 C 614.905 347.330 622.348 345.956 622.349 345.956 C 617.195 353.270 610.186 362.927 605.170 370.335 C 600.933 376.592 595.180 384.885 591.425 391.442 C 589.266 395.214 585.863 400.134 584.881 404.368 C 584.126 407.620 584.266 412.214 584.881 415.494 C 585.639 419.544 589.953 428.255 589.953 428.256 C 589.953 428.256 589.953 428.256 589.953 428.256 Z"/>
<path fill="none" stroke="#f8723c" stroke-width="1" stroke-linecap="round" stroke-linejoin="round" d="M 622.349 345.956 C 622.349 345.956 622.349 345.956 622.349 345.956 C 622.348 345.956 614.905 347.330 611.714 347.919 C 608.376 353.662 604.078 361.411 600.588 367.063 C 596.918 373.005 591.369 380.515 587.826 386.534 C 585.542 390.413 581.973 395.444 580.790 399.787 C 579.629 404.054 578.900 410.267 580.136 414.513 C 581.552 419.378 587.008 424.133 589.953 428.256 C 589.953 428.256 589.953 428.256 589.953 428.256 C 589.953 428.255 585.639 419.544 584.881 415.494 C 584.266 412.214 584.126 407.620 584.881 404.368 C 585.863 400.134 589.266 395.214 591.425 391.442 C 595.180 384.885 600.933 376.592 605.170 370.335 C 610.186 362.927 617.195 353.270 622.349 345.956 M 611.714 347.919 C 611.714 347.919 611.714 347.919 611.714 347.919 M 589.953 428.256 C 589.953 428.256 589.953 428.256 589.953 428.256 "/>
<path fill="#f98b5e" fill-rule="evenodd" stroke="none" d="M 570.208 428.226 C 570.208 428.226 570.208 428.226 570.208 428.226 C 567.665 424.643 563.435 420.332 561.732 416.282 C 560.115 412.437 559.344 406.774 559.227 402.604 C 559.099 398.062 559.461 391.796 561.154 387.579 C 564.570 379.069 574.246 370.644 580.225 363.691 C 584.839 358.326 591.418 351.555 596.215 346.353 C 596.215 346.353 596.215 346.353 596.215 346.353 C 599.566 346.180 607.386 345.775 607.387 345.775 C 599.239 355.253 587.938 367.532 580.225 377.368 C 576.573 382.026 570.997 387.917 568.667 393.358 C 566.605 398.172 565.197 405.270 565.392 410.503 C 565.596 416.009 570.207 428.224 570.208 428.226 C 570.208 428.226 570.208 428.226 570.208 428.226 Z"/>
<path fill="none" stroke="#f8723c" stroke-width="1" stroke-linecap="round" stroke-linejoin="round" d="M 607.387 345.775 C 607.387 345.775 607.387 345.775 607.387 345.775 C 607.386 345.775 599.566 346.180 596.215 346.353 C 591.418 351.555 584.839 358.326 580.225 363.691 C 574.246 370.644 564.570 379.069 561.154 387.579 C 559.461 391.796 559.099 398.062 559.227 402.604 C 559.344 406.774 560.115 412.437 561.732 416.282 C 563.435 420.332 567.665 424.643 570.208 428.226 C 570.208 428.226 570.208 428.226 570.208 428.226 C 570.207 428.224 565.596 416.009 565.392 410.503 C 565.197 405.270 566.605 398.172 568.667 393.358 C 570.997 387.917 576.573 382.026 580.225 377.368 C 587.938 367.532 599.239 355.253 607.387 345.775 M 596.215 346.353 C 596.215 346.353 596.215 346.353 596.215 346.353 M 570.208 428.226 C 570.208 428.226 570.208 428.226 570.208 428.226 "/>
<path fill="#f98b5e" fill-rule="evenodd" stroke="none" d="M 544.779 419.942 C 544.779 419.942 544.779 419.942 544.779 419.942 C 542.525 414.683 538.343 408.032 537.266 402.412 C 536.287 397.302 536.453 390.137 537.651 385.074 C 538.456 381.677 540.618 377.440 542.467 374.479 C 545.725 369.264 551.634 363.435 555.760 358.875 C 559.901 354.299 565.738 348.492 570.015 344.042 C 570.015 344.042 570.015 344.042 570.015 344.042 C 573.425 344.042 581.380 344.042 581.381 344.042 C 575.602 350.225 567.850 358.427 562.117 364.654 C 558.099 369.018 552.228 374.435 548.825 379.295 C 547.311 381.456 545.454 384.509 544.586 387.001 C 543.030 391.470 542.291 397.872 542.275 402.604 C 542.257 407.860 544.779 419.940 544.779 419.942 C 544.779 419.942 544.779 419.942 544.779 419.942 Z"/>
<path fill="none" stroke="#f8723c" stroke-width="1" stroke-linecap="round" stroke-linejoin="round" d="M 581.381 344.042 C 581.381 344.042 581.381 344.042 581.381 344.042 C 581.380 344.042 573.425 344.042 570.015 344.042 C 565.738 348.492 559.901 354.299 555.760 358.875 C 551.634 363.435 545.725 369.264 542.467 374.479 C 540.618 377.440 538.456 381.677 537.651 385.074 C 536.453 390.137 536.287 397.302 537.266 402.412 C 538.343 408.032 542.525 414.683 544.779 419.942 C 544.779 419.942 544.779 419.942 544.779 419.942 C 544.779 419.940 542.257 407.860 542.275 402.604 C 542.291 397.872 543.030 391.470 544.586 387.001 C 545.454 384.509 547.311 381.456 548.825 379.295 C 552.228 374.435 558.099 369.018 562.117 364.654 C 567.850 358.427 575.602 350.225 581.381 344.042 M 570.015 344.042 C 570.015 344.042 570.015 344.042 570.015 344.042 M 544.779 419.942 C 544.779 419.942 544.779 419.942 544.779 419.942 "/>
<path fill="#f98b5e" fill-rule="evenodd" stroke="none" d="M 519.574 425.398 C 519.574 425.398 519.574 425.398 519.574 425.398 C 517.191 424.143 513.483 423.172 511.631 421.217 C 507.642 417.007 505.354 408.980 504.524 403.241 C 503.460 395.879 503.967 385.352 507.032 378.575 C 509.029 374.163 514.332 369.939 517.693 366.451 C 525.545 358.305 537.007 348.454 545.285 340.741 C 545.285 340.741 545.285 340.741 545.285 340.741 C 549.612 341.117 559.707 341.995 559.708 341.995 C 548.358 350.962 532.253 361.811 521.874 371.886 C 518.589 375.075 513.665 379.184 511.840 383.383 C 509.557 388.637 509.346 396.735 510.168 402.404 C 511.237 409.780 519.573 425.395 519.574 425.398 C 519.574 425.398 519.574 425.398 519.574 425.398 Z"/>
<path fill="none" stroke="#f8723c" stroke-width="1" stroke-linecap="round" stroke-linejoin="round" d="M 559.708 341.995 C 559.708 341.995 559.708 341.995 559.708 341.995 C 559.707 341.995 549.612 341.117 545.285 340.741 C 537.007 348.454 525.545 358.305 517.693 366.451 C 514.332 369.939 509.029 374.163 507.032 378.575 C 503.967 385.352 503.460 395.879 504.524 403.241 C 505.354 408.980 507.642 417.007 511.631 421.217 C 513.483 423.172 517.191 424.143 519.574 425.398 C 519.574 425.398 519.574 425.398 519.574 425.398 C 519.573 425.395 511.237 409.780 510.168 402.404 C 509.346 396.735 509.557 388.637 511.840 383.383 C 513.665 379.184 518.589 375.075 521.874 371.886 C 532.253 361.811 548.358 350.962 559.708 341.995 M 545.285 340.741 C 545.285 340.741 545.285 340.741 545.285 340.741 M 519.574 425.398 C 519.574 425.398 519.574 425.398 519.574 425.398 "/>
<path fill="#f98b5e" fill-rule="evenodd" stroke="#f8723c" stroke-width="1" stroke-linecap="round" stroke-linejoin="round" d="M 495.933 421.540 C 495.933 421.540 495.933 421.540 495.933 421.540 C 494.651 415.836 492.488 408.314 491.660 402.527 C 490.970 397.694 490.249 391.160 490.592 386.290 C 490.923 381.588 491.495 375.022 493.796 370.909 C 497.989 363.416 508.963 357.820 515.374 352.109 C 519.642 348.307 525.243 343.136 529.473 339.291 C 529.473 339.291 529.473 339.291 529.473 339.291 C 526.846 338.009 523.342 336.300 520.714 335.018 C 520.714 335.018 520.714 335.018 520.714 335.018 C 515.587 338.800 508.308 343.305 503.624 347.623 C 497.040 353.690 487.676 362.024 484.183 370.268 C 482.168 375.026 481.960 382.192 482.047 387.359 C 482.164 394.312 482.817 403.980 485.892 410.217 C 487.900 414.289 495.932 421.539 495.933 421.540 C 495.933 421.540 495.933 421.540 495.933 421.540 Z"/>
</g>
<g id="Layer_4">
<path fill="#f8743d" fill-rule="evenodd" stroke="none" d="M 915.201 441.027 C 915.201 441.027 915.201 441.027 915.201 441.027 C 914.911 433.311 914.526 423.025 914.237 415.310 C 914.237 415.310 914.237 415.310 914.237 415.310 C 917.261 415.442 924.317 415.752 924.318 415.752 C 924.384 419.929 924.537 429.673 924.537 429.675 C 933.897 440.590 955.734 466.055 955.737 466.059 C 958.129 467.434 963.711 470.643 963.711 470.644 C 960.302 470.464 952.349 470.046 952.348 470.046 C 944.513 463.138 926.234 447.022 926.231 447.019 C 926.321 449.771 926.530 456.189 926.530 456.190 C 930.418 461.453 939.487 473.732 939.489 473.734 C 941.313 474.780 945.569 477.222 945.569 477.223 C 942.908 476.894 936.699 476.126 936.698 476.126 C 931.225 470.654 918.458 457.886 918.456 457.884 C 918.146 454.018 917.423 444.996 917.423 444.995 C 916.756 443.805 915.201 441.027 915.201 441.027 C 915.201 441.027 915.201 441.027 915.201 441.027 Z"/>
<path fill="none" stroke="#f8753d" stroke-width="1" stroke-linecap="round" stroke-linejoin="round" d="M 952.348 470.046 C 952.348 470.046 952.348 470.046 952.348 470.046 C 952.349 470.046 960.302 470.464 963.711 470.644 C 963.711 470.644 963.711 470.644 963.711 470.644 C 963.711 470.643 958.129 467.434 955.737 466.059 C 955.737 466.059 955.737 466.059 955.737 466.059 C 955.734 466.055 933.897 440.590 924.537 429.675 C 924.537 429.675 924.537 429.675 924.537 429.675 C 924.537 429.673 924.384 419.929 924.318 415.752 C 924.318 415.752 924.318 415.752 924.318 415.752 C 924.317 415.752 917.261 415.442 914.237 415.310 C 914.526 423.025 914.911 433.311 915.201 441.027 C 915.201 441.027 915.201 441.027 915.201 441.027 C 915.201 441.027 916.756 443.805 917.423 444.995 C 917.423 444.995 917.423 444.995 917.423 444.995 C 917.423 444.996 918.146 454.018 918.456 457.884 C 918.456 457.884 918.456 457.884 918.456 457.884 C 918.458 457.886 931.225 470.654 936.698 476.126 C 936.698 476.126 936.698 476.126 936.698 476.126 C 936.699 476.126 942.908 476.894 945.569 477.223 C 945.569 477.223 945.569 477.223 945.569 477.223 C 945.569 477.222 941.313 474.780 939.489 473.734 C 939.489 473.734 939.489 473.734 939.489 473.734 C 939.487 473.732 930.418 461.453 926.530 456.190 C 926.530 456.190 926.530 456.190 926.530 456.190 C 926.530 456.189 926.321 449.771 926.231 447.019 C 926.231 447.019 926.231 447.019 926.231 447.019 C 926.234 447.022 944.513 463.138 952.348 470.046 M 914.237 415.310 C 914.237 415.310 914.237 415.310 914.237 415.310 M 915.201 441.027 C 915.201 441.027 915.201 441.027 915.201 441.027 "/>
<path fill="#f8743d" fill-rule="evenodd" stroke="none" d="M 846.927 422.933 C 846.927 422.933 846.927 422.933 846.927 422.933 C 846.287 416.439 845.434 407.780 844.795 401.286 C 844.795 401.286 844.795 401.286 844.795 401.286 C 849.760 403.208 861.345 407.691 861.346 407.692 C 861.301 413.367 861.195 426.607 861.195 426.609 C 862.035 430.833 863.993 440.690 863.993 440.691 C 865.869 443.279 868.189 446.872 870.248 449.317 C 873.634 453.341 882.565 461.787 882.567 461.788 C 884.437 462.724 888.801 464.906 888.802 464.906 C 885.540 464.450 877.929 463.385 877.928 463.385 C 874.666 460.671 867.055 454.337 867.054 454.336 C 867.579 458.899 868.803 469.543 868.803 469.545 C 869.578 471.735 871.388 476.844 871.388 476.845 C 870.142 474.652 868.444 471.748 867.233 469.535 C 865.736 466.802 862.397 460.343 862.397 460.342 C 861.789 456.359 860.370 447.067 860.370 447.065 C 857.043 443.544 849.281 435.331 849.280 435.329 C 848.574 431.611 846.927 422.934 846.927 422.933 C 846.927 422.933 846.927 422.933 846.927 422.933 Z"/>
<path fill="none" stroke="#f8753d" stroke-width="1" stroke-linecap="round" stroke-linejoin="round" d="M 862.397 460.342 C 862.397 460.342 862.397 460.342 862.397 460.342 C 862.397 460.343 865.736 466.802 867.233 469.535 C 868.444 471.748 870.142 474.652 871.388 476.845 C 871.388 476.845 871.388 476.845 871.388 476.845 C 871.388 476.844 869.578 471.735 868.803 469.545 C 868.803 469.545 868.803 469.545 868.803 469.545 C 868.803 469.543 867.579 458.899 867.054 454.336 C 867.054 454.336 867.054 454.336 867.054 454.336 C 867.055 454.337 874.666 460.671 877.928 463.385 C 877.928 463.385 877.928 463.385 877.928 463.385 C 877.929 463.385 885.540 464.450 888.802 464.906 C 888.802 464.906 888.802 464.906 888.802 464.906 C 888.801 464.906 884.437 462.724 882.567 461.788 C 882.567 461.788 882.567 461.788 882.567 461.788 C 882.565 461.787 873.634 453.341 870.248 449.317 C 868.189 446.872 865.869 443.279 863.993 440.691 C 863.993 440.691 863.993 440.691 863.993 440.691 C 863.993 440.690 862.035 430.833 861.195 426.609 C 861.195 426.609 861.195 426.609 861.195 426.609 C 861.195 426.607 861.301 413.367 861.346 407.692 C 861.346 407.692 861.346 407.692 861.346 407.692 C 861.345 407.691 849.760 403.208 844.795 401.286 C 845.434 407.780 846.287 416.439 846.927 422.933 C 846.927 422.933 846.927 422.933 846.927 422.933 C 846.927 422.934 848.574 431.611 849.280 435.329 C 849.280 435.329 849.280 435.329 849.280 435.329 C 849.281 435.331 857.043 443.544 860.370 447.065 C 860.370 447.065 860.370 447.065 860.370 447.065 C 860.370 447.067 861.789 456.359 862.397 460.342 M 844.795 401.286 C 844.795 401.286 844.795 401.286 844.795 401.286 M 846.927 422.933 C 846.927 422.933 846.927 422.933 846.927 422.933 "/>
<path fill="#f8743d" fill-rule="evenodd" stroke="none" d="M 799.607 418.006 C 799.607 418.006 799.607 418.006 799.607 418.006 C 799.459 410.971 799.262 401.590 799.114 394.554 C 799.114 394.554 799.114 394.554 799.114 394.554 C 803.472 394.580 813.638 394.640 813.639 394.640 C 812.917 398.211 811.231 406.543 811.231 406.545 C 811.559 413.771 812.326 430.632 812.326 430.634 C 813.305 432.634 814.435 435.396 815.589 437.300 C 817.940 441.178 824.708 449.352 824.709 449.353 C 826.626 451.041 831.097 454.978 831.097 454.978 C 828.964 454.303 823.987 452.728 823.986 452.728 C 820.832 450.730 813.473 446.067 813.471 446.067 C 813.828 452.104 814.660 466.189 814.660 466.191 C 814.940 467.210 815.594 469.587 815.594 469.587 C 814.906 469.129 813.302 468.059 813.302 468.059 C 811.187 464.314 806.255 455.578 806.254 455.577 C 805.872 453.208 804.980 447.681 804.980 447.680 C 804.844 442.358 804.527 429.942 804.527 429.940 C 803.836 429.029 802.224 426.905 802.224 426.904 C 801.438 424.235 799.607 418.007 799.607 418.006 C 799.607 418.006 799.607 418.006 799.607 418.006 Z"/>
<path fill="none" stroke="#f8753d" stroke-width="1" stroke-linecap="round" stroke-linejoin="round" d="M 813.302 468.059 C 813.302 468.059 813.302 468.059 813.302 468.059 C 813.302 468.059 814.906 469.129 815.594 469.587 C 815.594 469.587 815.594 469.587 815.594 469.587 C 815.594 469.587 814.940 467.210 814.660 466.191 C 814.660 466.191 814.660 466.191 814.660 466.191 C 814.660 466.189 813.828 452.104 813.471 446.067 C 813.471 446.067 813.471 446.067 813.471 446.067 C 813.473 446.067 820.832 450.730 823.986 452.728 C 823.986 452.728 823.986 452.728 823.986 452.728 C 823.987 452.728 828.964 454.303 831.097 454.978 C 831.097 454.978 831.097 454.978 831.097 454.978 C 831.097 454.978 826.626 451.041 824.709 449.353 C 824.709 449.353 824.709 449.353 824.709 449.353 C 824.708 449.352 817.940 441.178 815.589 437.300 C 814.435 435.396 813.305 432.634 812.326 430.634 C 812.326 430.634 812.326 430.634 812.326 430.634 C 812.326 430.632 811.559 413.771 811.231 406.545 C 811.231 406.545 811.231 406.545 811.231 406.545 C 811.231 406.543 812.917 398.211 813.639 394.640 C 813.639 394.640 813.639 394.640 813.639 394.640 C 813.638 394.640 803.472 394.580 799.114 394.554 C 799.262 401.590 799.459 410.971 799.607 418.006 C 799.607 418.006 799.607 418.006 799.607 418.006 C 799.607 418.007 801.438 424.235 802.224 426.904 C 802.224 426.904 802.224 426.904 802.224 426.904 C 802.224 426.905 803.836 429.029 804.527 429.940 C 804.527 429.940 804.527 429.940 804.527 429.940 C 804.527 429.942 804.844 442.358 804.980 447.680 C 804.980 447.680 804.980 447.680 804.980 447.680 C 804.980 447.681 805.872 453.208 806.254 455.577 C 806.254 455.577 806.254 455.577 806.254 455.577 C 806.255 455.578 811.187 464.314 813.302 468.059 M 799.114 394.554 C 799.114 394.554 799.114 394.554 799.114 394.554 M 799.607 418.006 C 799.607 418.006 799.607 418.006 799.607 418.006 "/>
<path fill="#f8743d" fill-rule="evenodd" stroke="none" d="M 727.076 406.532 C 727.076 406.532 727.076 406.532 727.076 406.532 C 727.004 400.588 726.908 392.664 726.835 386.721 C 726.835 386.721 726.835 386.721 726.835 386.721 C 731.022 387.397 740.790 388.976 740.791 388.976 C 740.517 402.155 739.879 432.901 739.879 432.905 C 743.650 438.394 752.449 451.199 752.450 451.201 C 754.538 453.558 759.409 459.057 759.410 459.058 C 757.288 458.048 752.339 455.691 752.338 455.691 C 748.567 452.963 739.768 446.600 739.767 446.599 C 739.699 452.424 739.543 466.015 739.542 466.017 C 737.657 460.562 733.257 447.836 733.257 447.834 C 732.935 440.980 732.185 424.990 732.185 424.988 C 730.653 419.451 727.077 406.534 727.076 406.532 C 727.076 406.532 727.076 406.532 727.076 406.532 Z"/>
<path fill="none" stroke="#f8753d" stroke-width="1" stroke-linecap="round" stroke-linejoin="round" d="M 733.257 447.834 C 733.257 447.834 733.257 447.834 733.257 447.834 C 733.257 447.836 737.657 460.562 739.542 466.017 C 739.542 466.017 739.542 466.017 739.542 466.017 C 739.543 466.015 739.699 452.424 739.767 446.599 C 739.767 446.599 739.767 446.599 739.767 446.599 C 739.768 446.600 748.567 452.963 752.338 455.691 C 752.338 455.691 752.338 455.691 752.338 455.691 C 752.339 455.691 757.288 458.048 759.410 459.058 C 759.410 459.058 759.410 459.058 759.410 459.058 C 759.409 459.057 754.538 453.558 752.450 451.201 C 752.450 451.201 752.450 451.201 752.450 451.201 C 752.449 451.199 743.650 438.394 739.879 432.905 C 739.879 432.905 739.879 432.905 739.879 432.905 C 739.879 432.901 740.517 402.155 740.791 388.976 C 740.791 388.976 740.791 388.976 740.791 388.976 C 740.790 388.976 731.022 387.397 726.835 386.721 C 726.908 392.664 727.004 400.588 727.076 406.532 C 727.076 406.532 727.076 406.532 727.076 406.532 C 727.077 406.534 730.653 419.451 732.185 424.988 C 732.185 424.988 732.185 424.988 732.185 424.988 C 732.185 424.990 732.935 440.980 733.257 447.834 M 726.835 386.721 C 726.835 386.721 726.835 386.721 726.835 386.721 M 727.076 406.532 C 727.076 406.532 727.076 406.532 727.076 406.532 "/>
<path fill="#f8743d" fill-rule="evenodd" stroke="none" d="M 673.621 406.889 C 673.621 406.889 673.621 406.889 673.621 406.889 C 671.718 399.282 669.181 389.139 667.278 381.532 C 667.278 381.532 667.278 381.532 667.278 381.532 C 671.848 384.359 682.511 390.955 682.513 390.956 C 682.890 394.914 683.769 404.148 683.769 404.149 C 684.335 407.447 685.088 411.845 685.654 415.143 C 685.654 415.143 685.654 415.143 685.654 415.143 C 687.963 419.431 693.349 429.434 693.350 429.436 C 696.083 436.362 702.458 452.522 702.459 452.524 C 697.748 447.247 686.755 434.935 686.753 434.933 C 687.083 438.420 687.853 446.554 687.853 446.555 C 688.560 449.335 690.208 455.821 690.209 455.822 C 685.399 447.103 674.179 426.763 674.177 426.760 C 674.010 420.798 673.621 406.891 673.621 406.889 C 673.621 406.889 673.621 406.889 673.621 406.889 Z"/>
<path fill="none" stroke="#f8753d" stroke-width="1" stroke-linecap="round" stroke-linejoin="round" d="M 686.753 434.933 C 686.753 434.933 686.753 434.933 686.753 434.933 C 686.755 434.935 697.748 447.247 702.459 452.524 C 702.459 452.524 702.459 452.524 702.459 452.524 C 702.458 452.522 696.083 436.362 693.350 429.436 C 693.350 429.436 693.350 429.436 693.350 429.436 C 693.349 429.434 687.963 419.431 685.654 415.143 C 685.088 411.845 684.335 407.447 683.769 404.149 C 683.769 404.149 683.769 404.149 683.769 404.149 C 683.769 404.148 682.890 394.914 682.513 390.956 C 682.513 390.956 682.513 390.956 682.513 390.956 C 682.511 390.955 671.848 384.359 667.278 381.532 C 669.181 389.139 671.718 399.282 673.621 406.889 C 673.621 406.889 673.621 406.889 673.621 406.889 C 673.621 406.891 674.010 420.798 674.177 426.760 C 674.177 426.760 674.177 426.760 674.177 426.760 C 674.179 426.763 685.399 447.103 690.209 455.822 C 690.209 455.822 690.209 455.822 690.209 455.822 C 690.208 455.821 688.560 449.335 687.853 446.555 C 687.853 446.555 687.853 446.555 687.853 446.555 C 687.853 446.554 687.083 438.420 686.753 434.933 M 667.278 381.532 C 667.278 381.532 667.278 381.532 667.278 381.532 M 685.654 415.143 C 685.654 415.143 685.654 415.143 685.654 415.143 M 673.621 406.889 C 673.621 406.889 673.621 406.889 673.621 406.889 "/>
<path fill="#f98b5d" fill-rule="evenodd" stroke="none" d="M 911.696 399.395 C 911.696 399.395 911.696 399.395 911.696 399.395 C 913.421 396.000 915.719 391.474 917.444 388.079 C 917.444 388.079 917.444 388.079 917.444 388.079 C 923.020 389.831 936.031 393.916 936.033 393.917 C 935.548 396.234 935.099 399.373 934.416 401.640 C 932.564 407.791 926.155 421.394 926.155 421.396 C 921.952 421.073 912.147 420.319 912.146 420.318 C 912.011 414.041 911.697 399.397 911.696 399.395 C 911.696 399.395 911.696 399.395 911.696 399.395 Z"/>
<path fill="none" stroke="#f8753d" stroke-width="1" stroke-linecap="round" stroke-linejoin="round" d="M 912.146 420.318 C 912.146 420.318 912.146 420.318 912.146 420.318 C 912.147 420.319 921.952 421.073 926.155 421.396 C 926.155 421.396 926.155 421.396 926.155 421.396 C 926.155 421.394 932.564 407.791 934.416 401.640 C 935.099 399.373 935.548 396.234 936.033 393.917 C 936.033 393.917 936.033 393.917 936.033 393.917 C 936.031 393.916 923.020 389.831 917.444 388.079 C 915.719 391.474 913.421 396.000 911.696 399.395 C 911.696 399.395 911.696 399.395 911.696 399.395 C 911.697 399.397 912.011 414.041 912.146 420.318 M 917.444 388.079 C 917.444 388.079 917.444 388.079 917.444 388.079 M 911.696 399.395 C 911.696 399.395 911.696 399.395 911.696 399.395 "/>
<path fill="#f98b5d" fill-rule="evenodd" stroke="none" d="M 844.458 401.418 C 844.458 401.418 844.458 401.418 844.458 401.418 C 847.476 397.952 851.763 393.544 854.517 389.866 C 858.645 384.352 863.091 376.272 866.766 370.446 C 866.766 370.446 866.766 370.446 866.766 370.446 C 872.383 373.553 885.487 380.802 885.489 380.803 C 883.397 384.538 880.973 389.746 878.517 393.252 C 874.243 399.355 862.087 411.873 862.085 411.875 C 859.665 411.456 856.229 411.550 854.019 410.480 C 850.462 408.758 844.459 401.419 844.458 401.418 C 844.458 401.418 844.458 401.418 844.458 401.418 Z"/>
<path fill="none" stroke="#f8753d" stroke-width="1" stroke-linecap="round" stroke-linejoin="round" d="M 862.085 411.875 C 862.085 411.875 862.085 411.875 862.085 411.875 C 862.087 411.873 874.243 399.355 878.517 393.252 C 880.973 389.746 883.397 384.538 885.489 380.803 C 885.489 380.803 885.489 380.803 885.489 380.803 C 885.487 380.802 872.383 373.553 866.766 370.446 C 863.091 376.272 858.645 384.352 854.517 389.866 C 851.763 393.544 847.476 397.952 844.458 401.418 C 844.458 401.418 844.458 401.418 844.458 401.418 C 844.459 401.419 850.462 408.758 854.019 410.480 C 856.229 411.550 859.665 411.456 862.085 411.875 M 866.766 370.446 C 866.766 370.446 866.766 370.446 866.766 370.446 M 844.458 401.418 C 844.458 401.418 844.458 401.418 844.458 401.418 "/>
<path fill="#f98b5d" fill-rule="evenodd" stroke="none" d="M 795.474 382.364 C 795.474 382.364 795.474 382.364 795.474 382.364 C 797.207 379.273 799.624 375.209 801.249 372.061 C 803.555 367.591 806.242 361.440 808.382 356.889 C 808.382 356.889 808.382 356.889 808.382 356.889 C 812.831 357.602 823.213 359.266 823.214 359.267 C 823.010 362.188 823.342 366.189 822.534 369.004 C 821.923 371.136 819.138 375.570 819.138 375.571 C 819.138 380.768 819.138 392.892 819.138 392.894 C 818.764 393.845 817.893 396.064 817.893 396.064 C 812.152 396.370 798.760 397.083 798.758 397.083 C 798.011 395.622 796.267 392.215 796.267 392.215 C 796.029 389.259 795.474 382.365 795.474 382.364 C 795.474 382.364 795.474 382.364 795.474 382.364 Z"/>
<path fill="none" stroke="#f8753d" stroke-width="1" stroke-linecap="round" stroke-linejoin="round" d="M 798.758 397.083 C 798.758 397.083 798.758 397.083 798.758 397.083 C 798.760 397.083 812.152 396.370 817.893 396.064 C 817.893 396.064 817.893 396.064 817.893 396.064 C 817.893 396.064 818.764 393.845 819.138 392.894 C 819.138 392.894 819.138 392.894 819.138 392.894 C 819.138 392.892 819.138 380.768 819.138 375.571 C 819.138 375.571 819.138 375.571 819.138 375.571 C 819.138 375.570 821.923 371.136 822.534 369.004 C 823.342 366.189 823.010 362.188 823.214 359.267 C 823.214 359.267 823.214 359.267 823.214 359.267 C 823.213 359.266 812.831 357.602 808.382 356.889 C 806.242 361.440 803.555 367.591 801.249 372.061 C 799.624 375.209 797.207 379.273 795.474 382.364 C 795.474 382.364 795.474 382.364 795.474 382.364 C 795.474 382.365 796.029 389.259 796.267 392.215 C 796.267 392.215 796.267 392.215 796.267 392.215 C 796.267 392.215 798.011 395.622 798.758 397.083 M 808.382 356.889 C 808.382 356.889 808.382 356.889 808.382 356.889 M 795.474 382.364 C 795.474 382.364 795.474 382.364 795.474 382.364 "/>
<path fill="#f98b5d" fill-rule="evenodd" stroke="none" d="M 723.488 381.250 C 723.488 381.250 723.488 381.250 723.488 381.250 C 733.074 372.164 745.855 360.050 755.441 350.965 C 755.441 350.965 755.441 350.965 755.441 350.965 C 763.026 351.889 780.719 354.045 780.722 354.045 C 777.218 359.204 772.758 366.231 769.044 371.241 C 764.024 378.012 751.337 393.054 751.335 393.056 C 748.101 392.979 743.768 393.173 740.555 392.799 C 736.723 392.354 727.980 390.105 727.979 390.105 C 726.824 388.950 724.130 386.255 724.130 386.255 C 723.937 384.753 723.488 381.250 723.488 381.250 C 723.488 381.250 723.488 381.250 723.488 381.250 Z"/>
<path fill="none" stroke="#f8753d" stroke-width="1" stroke-linecap="round" stroke-linejoin="round" d="M 780.722 354.045 C 780.722 354.045 780.722 354.045 780.722 354.045 C 780.719 354.045 763.026 351.889 755.441 350.965 C 745.855 360.050 733.074 372.164 723.488 381.250 C 723.488 381.250 723.488 381.250 723.488 381.250 C 723.488 381.250 723.937 384.753 724.130 386.255 C 724.130 386.255 724.130 386.255 724.130 386.255 C 724.130 386.255 726.824 388.950 727.979 390.105 C 727.979 390.105 727.979 390.105 727.979 390.105 C 727.980 390.105 736.723 392.354 740.555 392.799 C 743.768 393.173 748.101 392.979 751.335 393.056 C 751.335 393.056 751.335 393.056 751.335 393.056 C 751.337 393.054 764.024 378.012 769.044 371.241 C 772.758 366.231 777.218 359.204 780.722 354.045 M 755.441 350.965 C 755.441 350.965 755.441 350.965 755.441 350.965 M 723.488 381.250 C 723.488 381.250 723.488 381.250 723.488 381.250 "/>
<path fill="#f98b5d" fill-rule="evenodd" stroke="none" d="M 666.269 383.824 C 666.269 383.824 666.269 383.824 666.269 383.824 C 666.234 381.583 666.186 378.595 666.151 376.353 C 666.151 376.353 666.151 376.353 666.151 376.353 C 675.614 368.633 688.233 358.339 697.696 350.618 C 697.696 350.618 697.696 350.618 697.696 350.618 C 704.812 352.468 721.412 356.784 721.415 356.785 C 715.011 362.193 706.152 369.046 700.068 374.811 C 697.529 377.217 694.287 380.582 692.004 383.231 C 689.304 386.363 686.110 390.869 683.584 394.142 C 683.584 394.142 683.584 394.142 683.584 394.142 C 680.737 393.181 676.687 392.460 674.096 390.940 C 671.359 389.334 666.270 383.825 666.269 383.824 C 666.269 383.824 666.269 383.824 666.269 383.824 Z"/>
<path fill="none" stroke="#f8753d" stroke-width="1" stroke-linecap="round" stroke-linejoin="round" d="M 721.415 356.785 C 721.415 356.785 721.415 356.785 721.415 356.785 C 721.412 356.784 704.812 352.468 697.696 350.618 C 688.233 358.339 675.614 368.633 666.151 376.353 C 666.186 378.595 666.234 381.583 666.269 383.824 C 666.269 383.824 666.269 383.824 666.269 383.824 C 666.270 383.825 671.359 389.334 674.096 390.940 C 676.687 392.460 680.737 393.181 683.584 394.142 C 686.110 390.869 689.304 386.363 692.004 383.231 C 694.287 380.582 697.529 377.217 700.068 374.811 C 706.152 369.046 715.011 362.193 721.415 356.785 M 666.151 376.353 C 666.151 376.353 666.151 376.353 666.151 376.353 M 697.696 350.618 C 697.696 350.618 697.696 350.618 697.696 350.618 M 683.584 394.142 C 683.584 394.142 683.584 394.142 683.584 394.142 M 666.269 383.824 C 666.269 383.824 666.269 383.824 666.269 383.824 "/>
</g>
<g id="Layer_3">
<clipPath id="6db2be7f-6539-435e-a0ba-3ee55fe92e17">
<path fill="#f98b5d" fill-rule="evenodd" stroke="none" d="M 438.377 300.160 C 440.488 305.093 439.280 312.648 439.667 318.000 C 439.668 318.000 446.326 320.462 449.124 321.654 C 455.228 324.253 462.796 329.084 469.113 331.111 C 472.991 332.355 478.658 332.179 482.439 333.691 C 485.264 334.820 488.168 338.053 491.037 339.064 C 498.113 341.557 508.495 340.354 515.970 340.998 C 524.267 341.714 535.334 342.655 543.606 343.627 C 555.695 345.048 571.702 347.805 583.779 349.321 C 590.601 350.178 599.707 352.457 606.555 351.852 C 613.255 351.260 621.737 347.805 628.065 345.525 C 637.902 341.982 650.644 336.243 660.015 331.607 C 664.087 329.591 670.785 328.116 673.300 324.331 C 674.419 322.648 674.130 319.689 674.486 317.700 C 674.487 317.702 681.546 329.164 685.416 333.403 C 686.971 335.105 690.128 336.425 691.196 338.469 C 692.789 341.518 690.270 346.994 692.111 349.901 C 693.462 352.035 697.034 353.157 699.275 354.322 C 701.966 355.720 705.637 357.530 708.574 358.285 C 711.112 358.938 714.644 359.323 717.263 359.200 C 720.013 359.070 723.773 358.561 726.256 357.371 C 728.890 356.107 731.647 353.174 733.725 351.121 C 735.317 349.549 737.140 347.173 738.603 345.481 C 738.604 345.482 745.967 350.378 749.426 351.883 C 754.829 354.233 762.529 356.177 768.328 357.218 C 771.509 357.789 775.898 358.881 779.056 358.195 C 785.427 356.811 791.909 350.059 797.417 346.572 C 797.418 346.573 802.017 355.095 805.334 357.353 C 806.695 358.279 808.943 358.712 810.557 359.037 C 812.346 359.397 814.899 358.936 816.621 359.543 C 818.948 360.363 820.892 364.203 823.359 364.259 C 826.273 364.325 829.019 360.486 831.445 358.868 C 831.446 358.868 840.052 358.868 843.742 358.868 C 843.743 358.868 852.380 354.319 855.365 351.457 C 856.459 350.408 857.487 348.627 858.397 347.414 C 858.397 347.415 857.168 356.845 858.898 360.307 C 859.948 362.408 863.641 363.432 864.760 365.497 C 865.720 367.267 865.500 370.138 865.817 372.127 C 865.817 372.127 869.558 375.576 871.390 376.740 C 874.285 378.577 878.521 380.444 881.788 381.484 C 883.666 382.082 886.257 382.874 888.227 382.794 C 891.279 382.669 895.110 380.890 897.939 379.738 C 901.342 378.352 905.577 375.842 908.851 374.173 C 908.851 374.174 909.426 383.393 911.470 386.613 C 913.050 389.102 916.727 391.075 919.200 392.680 C 921.817 394.380 925.400 396.676 928.401 397.532 C 933.812 399.075 941.519 398.678 947.137 398.368 C 949.313 398.248 952.173 397.666 954.331 397.364 C 954.333 397.366 963.701 406.045 967.882 409.577 C 973.953 414.706 982.451 421.049 988.696 425.966 C 988.697 425.966 999.470 425.966 1004.087 425.966 C 1004.088 425.964 1011.655 413.268 1014.898 407.826 C 1014.898 407.826 1015.154 404.491 1015.264 403.062 C 1015.261 403.058 992.562 373.049 982.832 360.186 C 982.503 358.866 982.063 357.108 981.733 355.788 C 981.731 355.786 969.225 338.877 963.001 332.386 C 960.417 329.690 956.989 325.902 953.730 324.077 C 951.776 322.983 948.757 322.476 946.625 321.790 C 946.625 321.789 946.541 316.311 946.505 313.963 C 946.503 313.962 937.203 307.769 932.998 305.487 C 927.117 302.297 918.776 299.050 912.723 296.200 C 910.595 295.198 907.701 293.966 905.659 292.799 C 903.278 291.438 900.266 289.343 898.072 287.697 C 894.997 285.391 891.204 281.929 888.261 279.456 C 888.260 279.456 880.203 278.998 876.750 278.802 C 876.749 278.801 870.431 274.444 867.593 272.785 C 863.240 270.239 857.182 267.294 852.624 265.137 C 847.524 262.723 840.866 258.949 835.382 257.621 C 832.246 256.861 827.882 256.940 824.661 256.736 C 820.024 256.443 813.830 256.272 809.188 256.073 C 809.187 256.073 804.545 253.675 802.556 252.647 C 802.553 252.647 781.862 254.054 773.161 252.617 C 772.509 252.510 771.676 252.203 771.043 252.012 C 767.269 250.875 762.422 248.651 758.537 247.978 C 754.838 247.338 749.784 247.636 746.031 247.574 C 741.674 247.503 735.840 248.040 731.507 247.574 C 729.996 247.412 728.038 246.821 726.535 246.592 C 721.657 245.850 715.099 245.010 710.165 245.004 C 706.117 244.999 700.670 245.313 696.727 246.226 C 692.443 247.217 687.149 249.903 683.044 251.479 C 683.040 251.479 656.004 252.115 644.438 252.839 C 634.566 253.456 621.352 254.123 611.598 255.765 C 606.057 256.698 598.852 258.838 593.389 260.155 C 593.387 260.155 580.192 260.930 574.530 261.130 C 556.609 261.765 532.695 262.235 514.764 262.048 C 508.673 261.985 500.558 261.600 494.470 261.407 C 494.464 261.409 458.313 273.708 442.775 278.853 C 435.510 281.258 418.519 286.750 418.519 286.750 C 421.769 287.678 426.486 288.050 429.350 289.843 C 432.836 292.025 436.759 296.379 438.377 300.160 M 982.832 360.186 C 982.832 360.186 982.832 360.186 982.832 360.186 Z"/>
</clipPath>
<path fill="#f98b5d" fill-rule="evenodd" stroke="none" d="M 438.377 300.160 C 440.488 305.093 439.280 312.648 439.667 318.000 C 439.668 318.000 446.326 320.462 449.124 321.654 C 455.228 324.253 462.796 329.084 469.113 331.111 C 472.991 332.355 478.658 332.179 482.439 333.691 C 485.264 334.820 488.168 338.053 491.037 339.064 C 498.113 341.557 508.495 340.354 515.970 340.998 C 524.267 341.714 535.334 342.655 543.606 343.627 C 555.695 345.048 571.702 347.805 583.779 349.321 C 590.601 350.178 599.707 352.457 606.555 351.852 C 613.255 351.260 621.737 347.805 628.065 345.525 C 637.902 341.982 650.644 336.243 660.015 331.607 C 664.087 329.591 670.785 328.116 673.300 324.331 C 674.419 322.648 674.130 319.689 674.486 317.700 C 674.487 317.702 681.546 329.164 685.416 333.403 C 686.971 335.105 690.128 336.425 691.196 338.469 C 692.789 341.518 690.270 346.994 692.111 349.901 C 693.462 352.035 697.034 353.157 699.275 354.322 C 701.966 355.720 705.637 357.530 708.574 358.285 C 711.112 358.938 714.644 359.323 717.263 359.200 C 720.013 359.070 723.773 358.561 726.256 357.371 C 728.890 356.107 731.647 353.174 733.725 351.121 C 735.317 349.549 737.140 347.173 738.603 345.481 C 738.604 345.482 745.967 350.378 749.426 351.883 C 754.829 354.233 762.529 356.177 768.328 357.218 C 771.509 357.789 775.898 358.881 779.056 358.195 C 785.427 356.811 791.909 350.059 797.417 346.572 C 797.418 346.573 802.017 355.095 805.334 357.353 C 806.695 358.279 808.943 358.712 810.557 359.037 C 812.346 359.397 814.899 358.936 816.621 359.543 C 818.948 360.363 820.892 364.203 823.359 364.259 C 826.273 364.325 829.019 360.486 831.445 358.868 C 831.446 358.868 840.052 358.868 843.742 358.868 C 843.743 358.868 852.380 354.319 855.365 351.457 C 856.459 350.408 857.487 348.627 858.397 347.414 C 858.397 347.415 857.168 356.845 858.898 360.307 C 859.948 362.408 863.641 363.432 864.760 365.497 C 865.720 367.267 865.500 370.138 865.817 372.127 C 865.817 372.127 869.558 375.576 871.390 376.740 C 874.285 378.577 878.521 380.444 881.788 381.484 C 883.666 382.082 886.257 382.874 888.227 382.794 C 891.279 382.669 895.110 380.890 897.939 379.738 C 901.342 378.352 905.577 375.842 908.851 374.173 C 908.851 374.174 909.426 383.393 911.470 386.613 C 913.050 389.102 916.727 391.075 919.200 392.680 C 921.817 394.380 925.400 396.676 928.401 397.532 C 933.812 399.075 941.519 398.678 947.137 398.368 C 949.313 398.248 952.173 397.666 954.331 397.364 C 954.333 397.366 963.701 406.045 967.882 409.577 C 973.953 414.706 982.451 421.049 988.696 425.966 C 988.697 425.966 999.470 425.966 1004.087 425.966 C 1004.088 425.964 1011.655 413.268 1014.898 407.826 C 1014.898 407.826 1015.154 404.491 1015.264 403.062 C 1015.261 403.058 992.562 373.049 982.832 360.186 C 982.503 358.866 982.063 357.108 981.733 355.788 C 981.731 355.786 969.225 338.877 963.001 332.386 C 960.417 329.690 956.989 325.902 953.730 324.077 C 951.776 322.983 948.757 322.476 946.625 321.790 C 946.625 321.789 946.541 316.311 946.505 313.963 C 946.503 313.962 937.203 307.769 932.998 305.487 C 927.117 302.297 918.776 299.050 912.723 296.200 C 910.595 295.198 907.701 293.966 905.659 292.799 C 903.278 291.438 900.266 289.343 898.072 287.697 C 894.997 285.391 891.204 281.929 888.261 279.456 C 888.260 279.456 880.203 278.998 876.750 278.802 C 876.749 278.801 870.431 274.444 867.593 272.785 C 863.240 270.239 857.182 267.294 852.624 265.137 C 847.524 262.723 840.866 258.949 835.382 257.621 C 832.246 256.861 827.882 256.940 824.661 256.736 C 820.024 256.443 813.830 256.272 809.188 256.073 C 809.187 256.073 804.545 253.675 802.556 252.647 C 802.553 252.647 781.862 254.054 773.161 252.617 C 772.509 252.510 771.676 252.203 771.043 252.012 C 767.269 250.875 762.422 248.651 758.537 247.978 C 754.838 247.338 749.784 247.636 746.031 247.574 C 741.674 247.503 735.840 248.040 731.507 247.574 C 729.996 247.412 728.038 246.821 726.535 246.592 C 721.657 245.850 715.099 245.010 710.165 245.004 C 706.117 244.999 700.670 245.313 696.727 246.226 C 692.443 247.217 687.149 249.903 683.044 251.479 C 683.040 251.479 656.004 252.115 644.438 252.839 C 634.566 253.456 621.352 254.123 611.598 255.765 C 606.057 256.698 598.852 258.838 593.389 260.155 C 593.387 260.155 580.192 260.930 574.530 261.130 C 556.609 261.765 532.695 262.235 514.764 262.048 C 508.673 261.985 500.558 261.600 494.470 261.407 C 494.464 261.409 458.313 273.708 442.775 278.853 C 435.510 281.258 418.519 286.750 418.519 286.750 C 421.769 287.678 426.486 288.050 429.350 289.843 C 432.836 292.025 436.759 296.379 438.377 300.160 M 982.832 360.186 C 982.832 360.186 982.832 360.186 982.832 360.186 Z"/>
<path fill="none" stroke="#f8763f" stroke-width="3" stroke-linecap="round" stroke-linejoin="round" d="M 439.667 318.000 C 439.667 318.000 439.667 318.000 439.667 318.000 C 439.280 312.648 440.488 305.093 438.377 300.160 C 436.759 296.379 432.836 292.025 429.350 289.843 C 426.486 288.050 421.769 287.678 418.519 286.750 C 418.519 286.750 435.510 281.258 442.775 278.853 C 458.313 273.708 494.464 261.409 494.470 261.407 C 494.470 261.407 494.470 261.407 494.470 261.407 C 500.558 261.600 508.673 261.985 514.764 262.048 C 532.695 262.235 556.609 261.765 574.530 261.130 C 580.192 260.930 593.387 260.155 593.389 260.155 C 593.389 260.155 593.389 260.155 593.389 260.155 C 598.852 258.838 606.057 256.698 611.598 255.765 C 621.352 254.123 634.566 253.456 644.438 252.839 C 656.004 252.115 683.040 251.479 683.044 251.479 C 683.044 251.479 683.044 251.479 683.044 251.479 C 687.149 249.903 692.443 247.217 696.727 246.226 C 700.670 245.313 706.117 244.999 710.165 245.004 C 715.099 245.010 721.657 245.850 726.535 246.592 C 728.038 246.821 729.996 247.412 731.507 247.574 C 735.840 248.040 741.674 247.503 746.031 247.574 C 749.784 247.636 754.838 247.338 758.537 247.978 C 762.422 248.651 767.269 250.875 771.043 252.012 C 771.676 252.203 772.509 252.510 773.161 252.617 C 781.862 254.054 802.553 252.647 802.556 252.647 C 802.556 252.647 802.556 252.647 802.556 252.647 C 804.545 253.675 809.187 256.073 809.188 256.073 C 809.188 256.073 809.188 256.073 809.188 256.073 C 813.830 256.272 820.024 256.443 824.661 256.736 C 827.882 256.940 832.246 256.861 835.382 257.621 C 840.866 258.949 847.524 262.723 852.624 265.137 C 857.182 267.294 863.240 270.239 867.593 272.785 C 870.431 274.444 876.749 278.801 876.750 278.802 C 876.750 278.802 876.750 278.802 876.750 278.802 C 880.203 278.998 888.260 279.456 888.261 279.456 C 888.261 279.456 888.261 279.456 888.261 279.456 C 891.204 281.929 894.997 285.391 898.072 287.697 C 900.266 289.343 903.278 291.438 905.659 292.799 C 907.701 293.966 910.595 295.198 912.723 296.200 C 918.776 299.050 927.117 302.297 932.998 305.487 C 937.203 307.769 946.503 313.962 946.505 313.963 C 946.505 313.963 946.505 313.963 946.505 313.963 C 946.541 316.311 946.625 321.789 946.625 321.790 C 946.625 321.790 946.625 321.790 946.625 321.790 C 948.757 322.476 951.776 322.983 953.730 324.077 C 956.989 325.902 960.417 329.690 963.001 332.386 C 969.225 338.877 981.731 355.786 981.733 355.788 C 981.733 355.788 981.733 355.788 981.733 355.788 C 982.063 357.108 982.503 358.866 982.832 360.186 C 982.832 360.186 982.832 360.186 982.832 360.186 C 992.562 373.049 1015.261 403.058 1015.264 403.062 C 1015.264 403.062 1015.264 403.062 1015.264 403.062 C 1015.154 404.491 1014.898 407.826 1014.898 407.826 C 1014.898 407.826 1014.898 407.826 1014.898 407.826 C 1011.655 413.268 1004.088 425.964 1004.087 425.966 C 1004.087 425.966 1004.087 425.966 1004.087 425.966 C 999.470 425.966 988.697 425.966 988.696 425.966 C 988.696 425.966 988.696 425.966 988.696 425.966 C 982.451 421.049 973.953 414.706 967.882 409.577 C 963.701 406.045 954.333 397.366 954.331 397.364 C 954.331 397.364 954.331 397.364 954.331 397.364 C 952.173 397.666 949.313 398.248 947.137 398.368 C 941.519 398.678 933.812 399.075 928.401 397.532 C 925.400 396.676 921.817 394.380 919.200 392.680 C 916.727 391.075 913.050 389.102 911.470 386.613 C 909.426 383.393 908.851 374.174 908.851 374.173 C 908.851 374.173 908.851 374.173 908.851 374.173 C 905.577 375.842 901.342 378.352 897.939 379.738 C 895.110 380.890 891.279 382.669 888.227 382.794 C 886.257 382.874 883.666 382.082 881.788 381.484 C 878.521 380.444 874.285 378.577 871.390 376.740 C 869.558 375.576 865.817 372.127 865.817 372.127 C 865.817 372.127 865.817 372.127 865.817 372.127 C 865.500 370.138 865.720 367.267 864.760 365.497 C 863.641 363.432 859.948 362.408 858.898 360.307 C 857.168 356.845 858.397 347.415 858.397 347.414 C 858.397 347.414 858.397 347.414 858.397 347.414 C 857.487 348.627 856.459 350.408 855.365 351.457 C 852.380 354.319 843.743 358.868 843.742 358.868 C 843.742 358.868 843.742 358.868 843.742 358.868 C 840.052 358.868 831.446 358.868 831.445 358.868 C 831.445 358.868 831.445 358.868 831.445 358.868 C 829.019 360.486 826.273 364.325 823.359 364.259 C 820.892 364.203 818.948 360.363 816.621 359.543 C 814.899 358.936 812.346 359.397 810.557 359.037 C 808.943 358.712 806.695 358.279 805.334 357.353 C 802.017 355.095 797.418 346.573 797.417 346.572 C 797.417 346.572 797.417 346.572 797.417 346.572 C 791.909 350.059 785.427 356.811 779.056 358.195 C 775.898 358.881 771.509 357.789 768.328 357.218 C 762.529 356.177 754.829 354.233 749.426 351.883 C 745.967 350.378 738.604 345.482 738.603 345.481 C 738.603 345.481 738.603 345.481 738.603 345.481 C 737.140 347.173 735.317 349.549 733.725 351.121 C 731.647 353.174 728.890 356.107 726.256 357.371 C 723.773 358.561 720.013 359.070 717.263 359.200 C 714.644 359.323 711.112 358.938 708.574 358.285 C 705.637 357.530 701.966 355.720 699.275 354.322 C 697.034 353.157 693.462 352.035 692.111 349.901 C 690.270 346.994 692.789 341.518 691.196 338.469 C 690.128 336.425 686.971 335.105 685.416 333.403 C 681.546 329.164 674.487 317.702 674.486 317.700 C 674.486 317.700 674.486 317.700 674.486 317.700 C 674.130 319.689 674.419 322.648 673.300 324.331 C 670.785 328.116 664.087 329.591 660.015 331.607 C 650.644 336.243 637.902 341.982 628.065 345.525 C 621.737 347.805 613.255 351.260 606.555 351.852 C 599.707 352.457 590.601 350.178 583.779 349.321 C 571.702 347.805 555.695 345.048 543.606 343.627 C 535.334 342.655 524.267 341.714 515.970 340.998 C 508.495 340.354 498.113 341.557 491.037 339.064 C 488.168 338.053 485.264 334.820 482.439 333.691 C 478.658 332.179 472.991 332.355 469.113 331.111 C 462.796 329.084 455.228 324.253 449.124 321.654 C 446.326 320.462 439.668 318.000 439.667 318.000 "/>
<path fill="#f8743d" fill-rule="evenodd" stroke="none" d="M 730.434 335.037 C 732.185 332.804 732.907 328.896 733.966 326.264 C 733.967 326.265 737.898 333.506 740.688 335.493 C 746.712 339.782 757.261 340.645 764.615 341.418 C 770.557 342.042 778.675 342.099 784.522 340.870 C 787.089 340.331 790.499 339.206 792.705 337.785 C 796.515 335.331 800.010 330.141 803.141 326.865 C 803.141 326.866 801.559 332.536 802.497 334.699 C 804.744 339.882 812.994 343.031 818.327 344.895 C 826.558 347.771 838.675 348.441 847.302 347.175 C 850.929 346.643 855.378 344.358 858.839 343.151 C 858.840 343.152 866.345 351.743 870.229 354.660 C 874.983 358.231 881.974 362.416 887.700 364.019 C 894.017 365.788 903.123 366.478 909.539 365.111 C 911.242 364.748 913.257 363.473 914.851 362.772 C 914.853 362.774 922.163 379.250 927.633 384.454 C 932.624 389.201 941.335 393.174 947.912 395.217 C 950.660 396.071 954.557 396.175 957.405 396.585 C 957.403 396.586 946.388 402.456 941.184 402.932 C 931.231 403.842 916.266 401.931 908.743 395.351 C 906.820 393.669 906.973 389.210 904.864 387.769 C 900.626 384.874 892.822 388.266 887.761 387.417 C 881.278 386.329 872.072 384.669 866.956 380.541 C 862.305 376.786 862.010 366.241 856.730 363.438 C 851.797 360.819 843.688 363.729 838.135 364.326 C 832.498 364.932 825.132 368.104 819.498 367.463 C 814.023 366.840 807.150 363.442 802.522 360.451 C 799.692 358.622 796.710 355.155 794.219 352.886 C 794.217 352.887 782.956 361.169 777.243 362.296 C 770.444 363.637 760.616 362.266 754.332 359.344 C 750.334 357.486 746.566 352.596 743.237 349.704 C 743.236 349.705 731.402 360.168 725.048 361.709 C 716.977 363.666 704.714 362.507 697.582 358.253 C 695.020 356.725 692.538 353.288 691.216 350.613 C 689.167 346.469 689.055 340.044 688.129 335.514 C 691.899 337.354 696.604 340.724 700.696 341.646 C 706.969 343.057 716.070 343.147 722.117 340.962 C 724.998 339.920 728.544 337.448 730.434 335.037 M 688.129 335.514 C 688.129 335.514 688.129 335.514 688.129 335.514 Z" clip-path="url(#6db2be7f-6539-435e-a0ba-3ee55fe92e17)"/>
<path fill="none" stroke="#f8743d" stroke-width="1" stroke-linecap="round" stroke-linejoin="round" d="M 733.966 326.264 C 733.966 326.264 733.966 326.264 733.966 326.264 C 732.907 328.896 732.185 332.804 730.434 335.037 C 728.544 337.448 724.998 339.920 722.117 340.962 C 716.070 343.147 706.969 343.057 700.696 341.646 C 696.604 340.724 691.899 337.354 688.129 335.514 C 688.129 335.514 688.129 335.514 688.129 335.514 C 689.055 340.044 689.167 346.469 691.216 350.613 C 692.538 353.288 695.020 356.725 697.582 358.253 C 704.714 362.507 716.977 363.666 725.048 361.709 C 731.402 360.168 743.236 349.705 743.237 349.704 C 743.237 349.704 743.237 349.704 743.237 349.704 C 746.566 352.596 750.334 357.486 754.332 359.344 C 760.616 362.266 770.444 363.637 777.243 362.296 C 782.956 361.169 794.217 352.887 794.219 352.886 C 794.219 352.886 794.219 352.886 794.219 352.886 C 796.710 355.155 799.692 358.622 802.522 360.451 C 807.150 363.442 814.023 366.840 819.498 367.463 C 825.132 368.104 832.498 364.932 838.135 364.326 C 843.688 363.729 851.797 360.819 856.730 363.438 C 862.010 366.241 862.305 376.786 866.956 380.541 C 872.072 384.669 881.278 386.329 887.761 387.417 C 892.822 388.266 900.626 384.874 904.864 387.769 C 906.973 389.210 906.820 393.669 908.743 395.351 C 916.266 401.931 931.231 403.842 941.184 402.932 C 946.388 402.456 957.403 396.586 957.405 396.585 C 957.405 396.585 957.405 396.585 957.405 396.585 C 954.557 396.175 950.660 396.071 947.912 395.217 C 941.335 393.174 932.624 389.201 927.633 384.454 C 922.163 379.250 914.853 362.774 914.851 362.772 C 914.851 362.772 914.851 362.772 914.851 362.772 C 913.257 363.473 911.242 364.748 909.539 365.111 C 903.123 366.478 894.017 365.788 887.700 364.019 C 881.974 362.416 874.983 358.231 870.229 354.660 C 866.345 351.743 858.840 343.152 858.839 343.151 C 858.839 343.151 858.839 343.151 858.839 343.151 C 855.378 344.358 850.929 346.643 847.302 347.175 C 838.675 348.441 826.558 347.771 818.327 344.895 C 812.994 343.031 804.744 339.882 802.497 334.699 C 801.559 332.536 803.141 326.866 803.141 326.865 C 803.141 326.865 803.141 326.865 803.141 326.865 C 800.010 330.141 796.515 335.331 792.705 337.785 C 790.499 339.206 787.089 340.331 784.522 340.870 C 778.675 342.099 770.557 342.042 764.615 341.418 C 757.261 340.645 746.712 339.782 740.688 335.493 C 737.898 333.506 733.967 326.265 733.966 326.264 " clip-path="url(#6db2be7f-6539-435e-a0ba-3ee55fe92e17)"/>
<path fill="none" stroke="#f8763f" stroke-width="3" stroke-linecap="round" stroke-linejoin="round" d="M 492.906 320.320 C 492.905 320.322 482.633 334.316 478.230 340.314 C 478.230 340.314 478.230 340.314 478.230 340.314 M 507.582 300.965 C 507.581 300.967 497.309 314.514 492.906 320.320 C 492.906 320.320 492.906 320.320 492.906 320.320 M 525.236 258.426 C 525.236 258.428 530.100 270.296 531.191 275.655 C 531.614 277.726 532.584 280.698 531.829 282.673 C 530.472 286.230 525.067 288.440 522.045 290.756 C 517.829 293.986 511.921 297.902 507.582 300.965 C 507.582 300.965 507.582 300.965 507.582 300.965 " clip-path="url(#6db2be7f-6539-435e-a0ba-3ee55fe92e17)"/>
<path fill="none" stroke="#f8763f" stroke-width="3" stroke-linecap="round" stroke-linejoin="round" d="M 655.867 302.196 C 655.869 302.197 669.120 308.785 672.680 313.766 C 675.419 317.597 677.190 328.801 677.190 328.803 M 655.679 275.778 C 655.679 275.781 655.811 294.270 655.867 302.196 C 655.867 302.196 655.867 302.196 655.867 302.196 M 648.320 260.116 C 648.320 260.118 653.471 271.080 655.679 275.778 C 655.679 275.778 655.679 275.778 655.679 275.778 M 648.697 249.172 C 648.697 249.173 648.433 256.833 648.320 260.116 C 648.320 260.116 648.320 260.116 648.320 260.116 " clip-path="url(#6db2be7f-6539-435e-a0ba-3ee55fe92e17)"/>
<path fill="none" stroke="#f8763f" stroke-width="3" stroke-linecap="round" stroke-linejoin="round" d="M 719.838 291.483 C 719.839 291.485 726.459 306.254 729.046 312.689 C 730.250 315.684 731.865 319.683 732.821 322.767 C 733.989 326.536 734.990 331.715 735.950 335.542 C 737.020 339.811 739.599 349.750 739.600 349.751 M 733.846 244.051 C 733.845 244.054 725.954 260.346 723.802 267.767 C 721.792 274.695 714.127 287.077 719.838 291.483 C 720.117 291.698 721.011 291.483 721.012 291.483 " clip-path="url(#6db2be7f-6539-435e-a0ba-3ee55fe92e17)"/>
<path fill="none" stroke="#f8763f" stroke-width="3" stroke-linecap="round" stroke-linejoin="round" d="M 798.082 292.412 C 798.082 292.414 799.623 303.275 800.223 307.939 C 800.961 313.681 801.817 321.353 802.500 327.101 C 802.500 327.101 802.500 327.101 802.500 327.101 C 801.247 330.992 799.247 336.088 798.322 340.069 C 797.521 343.517 796.593 351.739 796.593 351.741 M 800.089 269.790 C 800.089 269.793 798.684 285.625 798.082 292.412 C 798.082 292.412 798.082 292.412 798.082 292.412 M 811.199 254.263 C 811.198 254.265 803.422 265.132 800.089 269.790 C 800.089 269.790 800.089 269.790 800.089 269.790 " clip-path="url(#6db2be7f-6539-435e-a0ba-3ee55fe92e17)"/>
<path fill="none" stroke="#f8763f" stroke-width="3" stroke-linecap="round" stroke-linejoin="round" d="M 859.207 304.897 C 859.207 304.902 858.368 340.970 858.009 356.430 C 858.009 356.430 858.009 356.430 858.009 356.430 M 878.703 275.935 C 878.701 275.938 863.612 295.394 859.207 304.897 C 859.196 304.920 859.179 304.979 859.179 304.979 " clip-path="url(#6db2be7f-6539-435e-a0ba-3ee55fe92e17)"/>
<path fill="none" stroke="#f8763f" stroke-width="3" stroke-linecap="round" stroke-linejoin="round" d="M 950.733 320.569 C 950.731 320.570 932.775 325.329 926.944 330.389 C 924.249 332.728 921.930 337.105 920.443 340.348 C 917.472 346.827 916.795 356.619 914.330 363.307 C 913.615 365.245 912.402 367.725 911.475 369.570 C 910.375 371.760 908.709 374.576 907.523 376.721 C 907.523 376.721 907.523 376.721 907.523 376.721 " clip-path="url(#6db2be7f-6539-435e-a0ba-3ee55fe92e17)"/>
<path fill="none" stroke="#f8763f" stroke-width="3" stroke-linecap="round" stroke-linejoin="round" d="M 985.061 358.176 C 985.060 358.177 977.861 362.252 975.609 364.906 C 974.621 366.070 973.445 367.884 973.205 369.391 C 972.812 371.868 974.399 375.120 974.968 377.562 C 975.418 379.492 977.159 382.079 976.570 383.971 C 975.529 387.312 970.231 389.144 967.278 391.021 C 962.579 394.007 955.726 396.964 950.775 399.512 C 950.775 399.512 950.775 399.512 950.775 399.512 " clip-path="url(#6db2be7f-6539-435e-a0ba-3ee55fe92e17)"/>
<path fill="#f8e7ca" fill-rule="evenodd" stroke="none" d="M 1002.349 392.051 C 1004.245 396.554 1005.341 403.052 1006.624 407.767 C 1006.622 407.764 993.818 391.891 988.268 385.137 C 981.944 377.439 973.775 366.938 967.021 359.615 C 964.648 357.041 961.414 353.657 958.759 351.375 C 954.899 348.056 949.036 344.540 945.054 341.370 C 944.028 340.553 942.686 339.430 941.727 338.536 C 941.484 338.311 941.149 338.018 940.946 337.756 C 940.606 337.317 940.223 336.670 940.029 336.150 C 939.671 335.193 939.270 333.807 939.432 332.799 C 939.593 331.795 940.284 330.497 941.038 329.815 C 941.400 329.489 942.034 329.239 942.507 329.127 C 943.016 329.005 944.251 329.081 944.251 329.081 C 948.306 331.166 954.069 333.364 957.766 336.032 C 962.924 339.754 968.461 346.335 972.758 351.024 C 978.308 357.081 985.557 365.341 990.314 372.039 C 994.370 377.751 999.630 385.595 1002.349 392.051 Z" clip-path="url(#6db2be7f-6539-435e-a0ba-3ee55fe92e17)"/>
<path fill="none" stroke="#f8e7ca" stroke-width="1" stroke-linecap="round" stroke-linejoin="round" d="M 1006.624 407.767 C 1006.624 407.767 1006.624 407.767 1006.624 407.767 C 1005.341 403.052 1004.245 396.554 1002.349 392.051 C 999.630 385.595 994.370 377.751 990.314 372.039 C 985.557 365.341 978.308 357.081 972.758 351.024 C 968.461 346.335 962.924 339.754 957.766 336.032 C 954.069 333.364 948.306 331.166 944.251 329.081 C 944.251 329.081 943.016 329.005 942.507 329.127 C 942.034 329.239 941.400 329.489 941.038 329.815 C 940.284 330.497 939.593 331.795 939.432 332.799 C 939.270 333.807 939.671 335.193 940.029 336.150 C 940.223 336.670 940.606 337.317 940.946 337.756 C 941.149 338.018 941.484 338.311 941.727 338.536 C 942.686 339.430 944.028 340.553 945.054 341.370 C 949.036 344.540 954.899 348.056 958.759 351.375 C 961.414 353.657 964.648 357.041 967.021 359.615 C 973.775 366.938 981.944 377.439 988.268 385.137 C 993.818 391.891 1006.622 407.764 1006.624 407.767 " clip-path="url(#6db2be7f-6539-435e-a0ba-3ee55fe92e17)"/>
<path fill="#f8e7ca" fill-rule="evenodd" stroke="#f8e7ca" stroke-width="1" stroke-linecap="round" stroke-linejoin="round" d="M 878.868 293.743 C 882.516 292.536 887.878 292.853 891.675 293.445 C 893.623 293.749 896.112 294.695 897.930 295.456 C 903.049 297.597 909.564 301.214 914.163 304.317 C 917.744 306.732 922.643 310.022 925.333 313.401 C 926.807 315.254 928.696 318.050 928.981 320.400 C 929.063 321.075 929.038 322.108 928.609 322.634 C 927.841 323.577 925.951 323.874 924.737 323.826 C 921.592 323.700 917.939 320.968 915.280 319.284 C 911.312 316.771 906.960 312.142 903.217 309.305 C 900.224 307.037 896.493 303.376 892.941 302.157 C 889.471 300.966 884.394 301.674 880.729 301.487 C 878.853 301.391 876.256 301.786 874.474 301.189 C 873.904 300.998 873.056 300.671 872.762 300.147 C 872.390 299.484 872.457 298.273 872.836 297.615 C 873.142 297.083 874.035 296.833 874.549 296.498 C 874.549 296.498 874.549 296.498 874.549 296.498 C 874.527 296.498 877.409 294.226 878.868 293.743 Z" clip-path="url(#6db2be7f-6539-435e-a0ba-3ee55fe92e17)"/>
<path fill="#f8e7ca" fill-rule="evenodd" stroke="none" d="M 857.618 296.021 C 857.618 296.021 857.618 296.021 857.618 296.021 C 857.198 292.381 857.413 287.352 856.218 283.888 C 855.326 281.300 853.570 277.896 851.551 276.048 C 848.824 273.552 843.935 271.817 840.351 270.914 C 836.054 269.832 829.943 270.972 825.604 270.074 C 821.371 269.198 816.130 266.611 812.070 265.127 C 812.070 265.127 808.524 267.247 807.404 268.581 C 805.727 270.575 803.670 276.420 803.670 276.421 C 810.138 276.561 818.845 275.845 825.231 276.887 C 828.658 277.447 833.000 279.193 836.337 280.154 C 839.608 281.097 844.393 281.395 847.257 283.234 C 851.412 285.901 857.617 296.020 857.618 296.021 C 857.618 296.021 857.618 296.021 857.618 296.021 Z" clip-path="url(#6db2be7f-6539-435e-a0ba-3ee55fe92e17)"/>
<path fill="none" stroke="#f8e7ca" stroke-width="1" stroke-linecap="round" stroke-linejoin="round" d="M 803.670 276.421 C 803.670 276.421 803.670 276.421 803.670 276.421 C 803.670 276.420 805.727 270.575 807.404 268.581 C 808.524 267.247 812.070 265.127 812.070 265.127 C 816.130 266.611 821.371 269.198 825.604 270.074 C 829.943 270.972 836.054 269.832 840.351 270.914 C 843.935 271.817 848.824 273.552 851.551 276.048 C 853.570 277.896 855.326 281.300 856.218 283.888 C 857.413 287.352 857.198 292.381 857.618 296.021 C 857.618 296.021 857.618 296.021 857.618 296.021 C 857.617 296.020 851.412 285.901 847.257 283.234 C 844.393 281.395 839.608 281.097 836.337 280.154 C 833.000 279.193 828.658 277.447 825.231 276.887 C 818.845 275.845 810.138 276.561 803.670 276.421 M 857.618 296.021 C 857.618 296.021 857.618 296.021 857.618 296.021 " clip-path="url(#6db2be7f-6539-435e-a0ba-3ee55fe92e17)"/>
<path fill="#f8e7ca" fill-rule="evenodd" stroke="#f8e7ca" stroke-width="1" stroke-linecap="round" stroke-linejoin="round" d="M 792.558 266.465 C 792.558 266.465 792.558 266.465 792.558 266.465 C 792.088 266.347 791.454 266.216 790.991 266.073 C 786.403 264.655 780.821 261.087 776.103 260.196 C 771.714 259.367 765.672 259.914 761.214 260.196 C 757.952 260.402 753.664 261.709 750.401 261.528 C 746.461 261.309 741.460 259.334 737.628 258.394 C 737.628 258.394 735.453 260.814 734.729 261.998 C 733.976 263.228 733.158 264.998 732.769 266.386 C 732.425 267.619 731.737 269.433 732.221 270.618 C 732.644 271.654 734.024 272.740 735.120 272.968 C 736.591 273.275 738.433 271.801 739.900 271.480 C 742.837 270.835 746.865 269.966 749.852 270.304 C 752.024 270.550 754.633 272.104 756.748 272.655 C 759.037 273.251 762.140 274.104 764.505 274.065 C 768.297 274.004 773.143 272.141 776.808 271.166 C 781.573 269.898 792.557 266.465 792.558 266.465 C 792.558 266.465 792.558 266.465 792.558 266.465 Z" clip-path="url(#6db2be7f-6539-435e-a0ba-3ee55fe92e17)"/>
<path fill="#f8e7ca" fill-rule="evenodd" stroke="none" d="M 711.558 260.062 C 713.783 260.457 716.577 261.681 718.728 262.375 C 718.725 262.376 699.808 273.721 690.742 275.905 C 684.464 277.417 675.222 279.129 669.233 276.714 C 666.387 275.567 663.334 272.384 661.716 269.776 C 660.647 268.053 659.595 265.358 659.675 263.332 C 659.702 262.634 660.411 261.123 660.411 261.123 C 665.416 261.117 672.097 261.349 677.097 261.103 C 681.100 260.905 686.392 260.009 690.395 259.831 C 696.738 259.547 705.307 258.951 711.558 260.062 Z" clip-path="url(#6db2be7f-6539-435e-a0ba-3ee55fe92e17)"/>
<path fill="none" stroke="#f8e7ca" stroke-width="1" stroke-linecap="round" stroke-linejoin="round" d="M 718.728 262.375 C 718.728 262.375 718.728 262.375 718.728 262.375 C 716.577 261.681 713.783 260.457 711.558 260.062 C 705.307 258.951 696.738 259.547 690.395 259.831 C 686.392 260.009 681.100 260.905 677.097 261.103 C 672.097 261.349 665.416 261.117 660.411 261.123 C 660.411 261.123 659.702 262.634 659.675 263.332 C 659.595 265.358 660.647 268.053 661.716 269.776 C 663.334 272.384 666.387 275.567 669.233 276.714 C 675.222 279.129 684.464 277.417 690.742 275.905 C 699.808 273.721 718.725 262.376 718.728 262.375 " clip-path="url(#6db2be7f-6539-435e-a0ba-3ee55fe92e17)"/>
<path fill="#f8e7ca" fill-rule="evenodd" stroke="none" d="M 539.111 272.114 C 564.309 263.295 593.772 266.977 619.703 269.527 C 625.635 270.111 635.979 268.714 641.274 271.188 C 644.798 272.834 649.533 277.158 645.051 280.076 C 629.407 290.260 612.737 281.415 596.760 280.296 C 582.446 279.294 569.024 283.576 554.983 283.521 C 550.586 283.503 529.489 281.429 539.111 272.114 Z" clip-path="url(#6db2be7f-6539-435e-a0ba-3ee55fe92e17)"/>
<path fill="#f8e7ca" d="M 539.069 271.994 C 564.297 263.168 593.843 266.345 619.765 268.894 L 619.640 270.160 C 593.701 267.609 564.321 263.421 539.153 272.234 L 539.069 271.994 Z" clip-path="url(#6db2be7f-6539-435e-a0ba-3ee55fe92e17)"/>
<path fill="#f8e7ca" d="M 619.765 268.894 C 625.603 269.476 636.022 268.080 641.543 270.612 L 641.005 271.763 C 635.935 269.348 625.667 270.745 619.640 270.160 L 619.765 268.894 Z" clip-path="url(#6db2be7f-6539-435e-a0ba-3ee55fe92e17)"/>
<path fill="none" stroke="#f8e7ca" stroke-width="1" stroke-linecap="butt" stroke-linejoin="round" d="M 619.765 268.894 L 619.640 270.160 " clip-path="url(#6db2be7f-6539-435e-a0ba-3ee55fe92e17)"/>
<path fill="#f8e7ca" d="M 641.543 270.612 C 645.170 272.319 650.169 277.136 645.398 280.609 L 644.704 279.543 C 648.898 277.180 644.425 273.349 641.005 271.763 L 641.543 270.612 Z" clip-path="url(#6db2be7f-6539-435e-a0ba-3ee55fe92e17)"/>
<path fill="none" stroke="#f8e7ca" stroke-width="1" stroke-linecap="butt" stroke-linejoin="round" d="M 641.543 270.612 L 641.005 271.763 " clip-path="url(#6db2be7f-6539-435e-a0ba-3ee55fe92e17)"/>
<path fill="#f8e7ca" d="M 645.398 280.609 C 629.433 290.895 612.551 282.023 596.715 280.930 L 596.804 279.662 C 612.922 280.807 629.381 289.625 644.704 279.543 L 645.398 280.609 Z" clip-path="url(#6db2be7f-6539-435e-a0ba-3ee55fe92e17)"/>
<path fill="none" stroke="#f8e7ca" stroke-width="1" stroke-linecap="butt" stroke-linejoin="round" d="M 645.398 280.609 L 644.704 279.543 " clip-path="url(#6db2be7f-6539-435e-a0ba-3ee55fe92e17)"/>
<path fill="#f8e7ca" d="M 596.715 280.930 C 582.521 279.925 569.121 284.204 554.980 284.156 L 554.985 282.885 C 568.927 282.948 582.372 278.663 596.804 279.662 L 596.715 280.930 Z" clip-path="url(#6db2be7f-6539-435e-a0ba-3ee55fe92e17)"/>
<path fill="none" stroke="#f8e7ca" stroke-width="1" stroke-linecap="butt" stroke-linejoin="round" d="M 596.715 280.930 L 596.804 279.662 " clip-path="url(#6db2be7f-6539-435e-a0ba-3ee55fe92e17)"/>
<path fill="#f8e7ca" d="M 554.980 284.156 C 550.534 284.137 529.399 281.520 539.023 272.023 L 539.200 272.206 C 529.578 281.339 550.638 282.870 554.985 282.885 L 554.980 284.156 Z" clip-path="url(#6db2be7f-6539-435e-a0ba-3ee55fe92e17)"/>
<path fill="none" stroke="#f8e7ca" stroke-width="1" stroke-linecap="butt" stroke-linejoin="round" d="M 554.980 284.156 L 554.985 282.885 " clip-path="url(#6db2be7f-6539-435e-a0ba-3ee55fe92e17)"/>
<path fill="#f8e7ca" fill-rule="evenodd" stroke="none" d="M 504.601 266.389 C 508.486 267.166 515.969 267.947 518.902 270.835 C 530.332 282.090 512.207 287.564 503.230 285.799 C 495.128 284.205 496.249 267.007 504.601 266.389 Z" clip-path="url(#6db2be7f-6539-435e-a0ba-3ee55fe92e17)"/>
<path fill="#f8e7ca" d="M 504.626 266.265 C 508.503 267.040 516.180 267.348 519.348 270.382 L 518.456 271.288 C 515.758 268.547 508.469 267.292 504.576 266.514 L 504.626 266.265 Z" clip-path="url(#6db2be7f-6539-435e-a0ba-3ee55fe92e17)"/>
<path fill="#f8e7ca" d="M 519.348 270.382 C 530.922 282.326 512.293 288.194 503.107 286.422 L 503.353 285.175 C 512.121 286.934 529.742 281.853 518.456 271.288 L 519.348 270.382 Z" clip-path="url(#6db2be7f-6539-435e-a0ba-3ee55fe92e17)"/>
<path fill="none" stroke="#f8e7ca" stroke-width="1" stroke-linecap="butt" stroke-linejoin="round" d="M 519.348 270.382 L 518.456 271.288 " clip-path="url(#6db2be7f-6539-435e-a0ba-3ee55fe92e17)"/>
<path fill="#f8e7ca" d="M 503.107 286.422 C 494.532 284.427 496.137 266.947 504.591 266.262 L 504.610 266.516 C 496.362 267.066 495.724 283.984 503.353 285.175 L 503.107 286.422 Z" clip-path="url(#6db2be7f-6539-435e-a0ba-3ee55fe92e17)"/>
<path fill="none" stroke="#f8e7ca" stroke-width="1" stroke-linecap="butt" stroke-linejoin="round" d="M 503.107 286.422 L 503.353 285.175 " clip-path="url(#6db2be7f-6539-435e-a0ba-3ee55fe92e17)"/>
</g>
<g id="Layer_3">
<path fill="#f88656" fill-rule="evenodd" stroke="none" d="M 1008.271 416.027 C 1006.769 415.981 1004.494 415.076 1003.261 415.936 C 1003.133 416.025 1003.048 416.236 1003.001 416.384 C 1002.136 419.106 1002.616 423.088 1003.086 425.905 C 1004.500 434.382 1010.181 444.660 1013.090 452.746 C 1013.615 454.206 1014.099 456.241 1014.798 457.626 C 1018.122 464.214 1025.565 471.110 1029.438 477.391 C 1033.184 483.465 1035.684 493.072 1040.175 498.619 C 1042.822 501.890 1046.874 506.457 1050.911 507.647 C 1054.874 508.815 1060.476 506.451 1064.575 505.939 C 1064.573 505.934 1049.178 471.653 1040.907 457.870 C 1034.103 446.531 1022.948 432.779 1015.286 422.001 C 1014.039 420.247 1013.071 417.093 1011.138 416.145 C 1010.365 415.766 1009.132 416.053 1008.271 416.027 Z"/>
<path fill="none" stroke="#f8763f" stroke-width="1" stroke-linecap="round" stroke-linejoin="round" d="M 1064.575 505.939 C 1064.575 505.939 1064.575 505.939 1064.575 505.939 C 1064.573 505.934 1049.178 471.653 1040.907 457.870 C 1034.103 446.531 1022.948 432.779 1015.286 422.001 C 1014.039 420.247 1013.071 417.093 1011.138 416.145 C 1010.365 415.766 1009.132 416.053 1008.271 416.027 C 1006.769 415.981 1004.494 415.076 1003.261 415.936 C 1003.133 416.025 1003.048 416.236 1003.001 416.384 C 1002.136 419.106 1002.616 423.088 1003.086 425.905 C 1004.500 434.382 1010.181 444.660 1013.090 452.746 C 1013.615 454.206 1014.099 456.241 1014.798 457.626 C 1018.122 464.214 1025.565 471.110 1029.438 477.391 C 1033.184 483.465 1035.684 493.072 1040.175 498.619 C 1042.822 501.890 1046.874 506.457 1050.911 507.647 C 1054.874 508.815 1060.476 506.451 1064.575 505.939 "/>
<path fill="#f88656" fill-rule="evenodd" stroke="none" d="M 1012.055 414.294 C 1012.055 414.294 1012.055 414.294 1012.055 414.294 C 1009.503 414.736 1006.099 415.325 1003.547 415.767 C 1003.547 415.767 1003.547 415.767 1003.547 415.767 C 1005.244 417.531 1007.644 419.761 1009.204 421.647 C 1014.364 427.881 1020.208 437.011 1024.404 443.930 C 1026.905 448.053 1029.806 453.800 1032.068 458.058 C 1039.790 472.595 1057.277 506.786 1057.280 506.791 C 1062.356 510.293 1074.199 518.465 1074.201 518.466 C 1075.601 514.216 1078.869 504.300 1078.869 504.298 C 1073.954 496.123 1067.827 484.951 1062.485 477.049 C 1052.926 462.909 1038.822 444.989 1027.875 431.894 C 1023.321 426.447 1012.056 414.296 1012.055 414.294 C 1012.055 414.294 1012.055 414.294 1012.055 414.294 Z"/>
<path fill="none" stroke="#f8763f" stroke-width="1" stroke-linecap="round" stroke-linejoin="round" d="M 1074.201 518.466 C 1074.201 518.466 1074.201 518.466 1074.201 518.466 C 1074.199 518.465 1062.356 510.293 1057.280 506.791 C 1057.280 506.791 1057.280 506.791 1057.280 506.791 C 1057.277 506.786 1039.790 472.595 1032.068 458.058 C 1029.806 453.800 1026.905 448.053 1024.404 443.930 C 1020.208 437.011 1014.364 427.881 1009.204 421.647 C 1007.644 419.761 1005.244 417.531 1003.547 415.767 C 1006.099 415.325 1009.503 414.736 1012.055 414.294 C 1012.055 414.294 1012.055 414.294 1012.055 414.294 C 1012.056 414.296 1023.321 426.447 1027.875 431.894 C 1038.822 444.989 1052.926 462.909 1062.485 477.049 C 1067.827 484.951 1073.954 496.123 1078.869 504.298 C 1078.869 504.298 1078.869 504.298 1078.869 504.298 C 1078.869 504.300 1075.601 514.216 1074.201 518.466 M 1003.547 415.767 C 1003.547 415.767 1003.547 415.767 1003.547 415.767 M 1012.055 414.294 C 1012.055 414.294 1012.055 414.294 1012.055 414.294 "/>
</g>
<g id="Layer_5">
<path fill="#000000" fill-rule="evenodd" stroke="#000000" stroke-width="1" stroke-linecap="round" stroke-linejoin="round" d="M 432.938 289.918 C 442.557 289.918 450.316 297.677 450.316 307.296 C 450.316 316.915 442.557 324.675 432.938 324.675 C 423.319 324.675 415.559 316.915 415.559 307.296 C 415.559 297.677 423.319 289.918 432.938 289.918 Z"/>
<path fill="#f8f8f8" fill-rule="evenodd" stroke="#f8f8f8" stroke-width="1" stroke-linecap="round" stroke-linejoin="round" d="M 432.278 293.082 C 435.562 293.082 438.212 295.732 438.212 299.016 C 438.212 302.300 435.562 304.949 432.278 304.949 C 428.994 304.949 426.345 302.300 426.345 299.016 C 426.345 295.732 428.994 293.083 432.278 293.082 Z"/>
</g>
</g>
</svg>
